<?xml version="1.0" standalone="no"?>
<!DOCTYPE svg PUBLIC "-//W3C//DTD SVG 20010904//EN"
 "http://www.w3.org/TR/2001/REC-SVG-20010904/DTD/svg10.dtd">
<svg version="1.0" xmlns="http://www.w3.org/2000/svg"
 width="512.000000pt" height="512.000000pt" viewBox="0 0 512.000000 512.000000"
 preserveAspectRatio="xMidYMid meet">
<metadata>
Created by potrace 1.14, written by Peter Selinger 2001-2017
</metadata>
<g transform="translate(0.000000,512.000000) scale(0.100000,-0.100000)"
fill="#000000" stroke="none">
<path d="M3123 4569 c-101 -18 -148 -53 -257 -190 -33 -40 -74 -89 -90 -108
-17 -19 -24 -31 -16 -27 8 4 5 -1 -7 -12 -12 -11 -19 -22 -16 -26 4 -3 1 -6
-6 -6 -7 0 -9 -5 -5 -12 5 -8 1 -9 -12 -4 -15 6 -16 5 -7 -5 9 -9 9 -18 -3
-40 -8 -16 -19 -29 -25 -29 -6 0 -8 -4 -5 -9 9 -13 -23 -83 -34 -76 -6 3 -10
1 -10 -4 0 -6 4 -11 9 -11 5 0 4 -13 -2 -30 -6 -16 -15 -30 -20 -30 -4 0 -6
-4 -3 -9 3 -5 -7 -46 -23 -92 -28 -79 -31 -84 -57 -82 -28 2 -28 -7 0 -11 17
-2 20 -10 13 -36 -2 -8 -5 -19 -6 -25 -2 -5 -8 -19 -14 -30 -11 -20 -13 -26
-16 -46 0 -5 -5 -7 -11 -4 -6 3 -7 -1 -4 -10 3 -8 -3 -35 -15 -60 -17 -36 -26
-45 -47 -45 -48 0 -262 128 -249 149 2 5 -2 11 -10 15 -8 3 -18 23 -21 46 -4
22 -10 40 -13 40 -4 0 -8 16 -9 36 -2 20 -3 39 -4 43 -7 61 12 102 61 129 20
12 25 12 32 0 7 -10 9 -9 9 3 0 14 6 16 35 9 19 -4 35 -5 35 -1 1 18 61 -67
70 -98 13 -48 13 -114 -1 -145 -10 -20 -9 -30 5 -50 10 -15 22 -23 31 -20 8 3
33 45 56 93 23 47 47 89 53 93 6 4 8 8 4 8 -3 0 10 30 31 68 20 37 43 82 50
99 7 18 17 30 22 27 5 -3 6 2 3 10 -4 10 -1 16 7 16 7 0 10 3 6 6 -3 4 3 24
13 45 11 21 20 45 20 54 0 10 5 13 12 9 7 -5 8 -3 3 6 -4 7 -2 16 6 21 10 6
10 9 2 9 -8 0 -11 10 -7 28 9 51 10 122 0 122 -5 0 -7 3 -3 6 7 7 -16 56 -46
96 -44 60 -170 76 -257 32 -129 -64 -203 -195 -387 -677 -89 -235 -113 -345
-114 -518 0 -102 12 -172 37 -223 22 -42 101 -118 147 -140 21 -9 35 -21 32
-26 -4 -6 2 -7 11 -3 11 4 15 3 11 -4 -5 -7 0 -9 13 -6 13 3 20 0 20 -8 0 -11
2 -11 10 1 5 8 10 10 10 4 0 -8 16 -11 43 -10 33 1 41 -2 39 -14 -2 -8 0 -11
5 -7 4 5 8 13 8 19 0 6 9 12 20 14 22 3 47 -14 39 -27 -3 -5 -7 -17 -9 -26 -2
-10 -19 -81 -38 -158 -19 -77 -43 -176 -52 -220 -10 -44 -23 -91 -30 -104 -12
-23 -13 -24 -23 -5 -5 10 -12 28 -13 39 -2 11 -8 23 -12 26 -4 3 -9 15 -10 27
0 12 -3 20 -5 18 -2 -2 -21 15 -42 38 -60 65 -132 100 -206 101 -56 0 -64 -3
-109 -39 -55 -45 -121 -143 -173 -254 -68 -148 -159 -468 -221 -777 -51 -257
-56 -294 -56 -435 0 -105 2 -120 27 -171 35 -70 62 -95 115 -107 24 -6 41 -7
39 -3 -3 4 10 13 27 21 17 7 42 27 56 42 18 22 26 26 32 16 7 -10 9 -9 9 5 0
19 131 157 149 157 7 0 10 4 7 8 -8 13 44 63 56 56 7 -4 8 -2 4 5 -4 6 -2 18
4 26 14 16 35 21 25 6 -3 -5 -1 -12 4 -15 10 -7 9 13 -2 31 -4 7 1 18 13 26
11 7 17 17 12 22 -4 4 1 5 11 2 10 -4 16 -3 12 3 -7 12 22 70 36 70 6 0 7 5 4
10 -3 6 -1 10 5 10 6 0 8 5 5 10 -3 5 -1 10 4 10 6 0 11 7 11 16 0 11 5 14 16
10 13 -5 14 -3 6 6 -8 10 -6 20 8 38 l18 25 7 -30 c3 -17 11 -40 16 -53 11
-28 12 -45 1 -38 -5 3 -9 -1 -9 -8 0 -8 6 -12 12 -10 7 3 26 -31 48 -84 41
-98 121 -233 162 -275 37 -36 81 -57 123 -57 31 0 33 -2 21 -17 -10 -12 -11
-15 -1 -9 7 4 21 2 30 -5 14 -11 15 -11 5 1 -21 24 -15 32 21 28 20 -2 32 0
29 6 -4 5 7 7 26 3 20 -4 30 -3 26 3 -5 9 15 15 38 11 4 0 7 4 7 10 0 5 5 7
10 4 6 -3 10 -2 10 3 0 4 16 16 36 25 41 20 132 86 169 122 14 15 30 23 35 20
6 -3 7 1 4 9 -3 9 -1 16 5 16 6 0 11 7 11 15 0 8 4 15 9 15 13 0 32 -26 24
-33 -3 -4 -2 -7 4 -7 6 0 16 7 23 15 11 13 10 14 -5 9 -13 -5 -16 -4 -11 5 4
7 3 10 -5 9 -20 -5 -20 17 1 40 12 12 17 22 13 22 -4 0 1 7 11 15 11 8 17 15
13 15 -3 0 6 22 22 48 29 50 75 151 86 190 4 12 11 19 17 16 7 -5 8 -2 3 5 -4
7 0 31 8 54 8 23 21 67 27 97 7 30 15 60 19 65 3 6 4 20 2 33 -1 12 3 22 9 22
6 0 8 -4 5 -10 -3 -5 -1 -10 4 -10 14 0 14 17 1 25 -5 3 -7 24 -4 48 3 23 7
52 9 65 2 13 9 30 17 39 9 12 9 15 1 9 -9 -5 -13 2 -13 24 0 17 4 29 8 26 5
-3 9 1 9 9 0 8 -3 12 -7 10 -3 -2 -5 17 -3 43 4 61 4 116 -1 174 -2 30 1 45 7
41 6 -4 7 -1 1 8 -13 22 -14 42 -1 58 8 10 8 13 1 8 -15 -9 -21 9 -20 50 1 17
-2 29 -6 26 -7 -4 -10 8 -12 55 -1 9 -5 20 -9 23 -5 3 -10 12 -11 20 -11 52
-67 133 -115 165 -50 32 -93 44 -167 45 -113 1 -168 -45 -246 -204 -72 -147
-114 -261 -157 -424 -33 -127 -38 -159 -30 -188 6 -19 14 -35 19 -35 19 0 52
58 75 135 26 84 44 109 108 144 39 21 62 21 61 0 -1 -9 4 -16 11 -16 7 0 11 7
8 15 -5 12 -2 12 15 3 12 -7 22 -17 22 -23 0 -6 3 -9 6 -5 11 11 84 -85 121
-160 69 -139 60 -343 -20 -430 -50 -56 -167 -65 -280 -23 -88 33 -207 162
-207 225 0 8 -5 15 -11 15 -6 0 -9 9 -6 20 3 11 2 20 -3 20 -15 0 -20 32 -8
47 9 11 9 13 -1 11 -8 -2 -15 4 -16 12 -2 8 -11 42 -20 74 -8 33 -14 65 -11
72 2 6 0 16 -5 21 -5 5 -5 23 2 43 6 19 13 49 16 65 3 17 9 37 14 46 4 9 5 20
1 24 -4 5 2 5 13 1 16 -6 18 -5 8 5 -15 15 -17 33 -3 24 6 -4 9 3 7 16 -5 29
19 111 36 121 8 5 9 8 0 8 -7 0 -4 22 10 68 26 81 23 77 40 64 10 -9 14 -8 14
3 0 8 -4 12 -8 9 -4 -2 -11 6 -15 18 -4 13 -2 24 5 26 6 2 9 8 5 13 -3 5 -1 9
5 9 5 0 8 9 6 20 -2 11 0 22 5 25 5 3 6 13 3 22 -4 10 -2 14 4 10 6 -4 9 4 7
19 -2 20 1 24 14 19 14 -5 15 -4 5 6 -19 19 -16 29 10 30 16 1 18 2 5 6 -10 2
-18 7 -18 10 0 4 8 15 18 26 9 12 11 17 3 12 -9 -5 -12 -3 -9 6 3 8 12 13 19
11 11 -3 11 -1 2 9 -7 7 -9 19 -3 34 5 13 6 26 3 29 -4 3 -2 6 4 6 6 0 10 8 9
18 -1 11 6 17 21 16 12 0 20 3 18 7 -3 4 8 9 23 12 36 6 95 30 103 41 4 5 12
5 19 1 8 -5 11 -4 6 3 -7 12 29 36 42 28 4 -3 14 0 22 6 12 8 11 8 -5 3 -18
-6 -18 -4 3 15 13 12 29 19 37 16 10 -3 12 0 8 12 -3 9 -3 14 2 10 4 -4 18 6
32 22 13 16 33 32 44 35 10 4 17 11 13 16 -3 6 3 13 15 16 11 3 18 10 14 16
-4 6 0 8 9 4 10 -3 15 0 14 11 0 9 4 16 11 15 7 -2 10 3 7 11 -3 8 0 17 7 22
7 4 10 3 5 -4 -3 -6 -2 -13 3 -17 6 -3 8 5 5 20 -4 25 0 28 48 28 10 0 15 3
13 8 -3 4 -15 6 -26 4 -13 -3 -19 0 -16 8 3 7 10 11 16 10 6 -2 10 0 9 5 -3
15 15 42 25 35 6 -3 7 -1 3 5 -12 20 4 35 21 20 19 -15 53 -21 53 -9 0 6 -9 8
-19 6 -22 -4 -46 19 -36 35 3 6 10 8 15 5 4 -3 7 3 6 13 0 9 5 16 12 14 8 -1
11 2 8 7 -5 8 21 64 55 119 8 12 21 22 29 23 10 0 11 2 3 6 -10 3 -10 10 -2
24 5 11 15 16 21 13 7 -4 8 -3 4 4 -7 12 41 114 57 120 4 2 7 12 7 22 0 10 5
22 10 25 6 4 8 11 5 16 -4 5 -2 9 3 9 5 0 9 6 10 13 2 25 35 107 43 107 5 0 6
7 3 15 -4 8 -1 15 6 15 6 0 9 4 6 8 -3 5 2 35 11 68 20 75 21 84 22 112 1 13
5 20 11 17 6 -3 10 -2 10 4 0 5 -5 11 -11 13 -7 2 -7 12 0 31 6 15 7 27 2 27
-4 0 -8 15 -8 33 -1 56 -7 87 -18 87 -5 0 -3 5 5 10 8 5 10 10 4 10 -6 0 -16
12 -22 26 -7 14 -8 23 -4 20 5 -3 9 1 9 9 0 8 -4 12 -7 10 -4 -3 -20 13 -35
35 -45 65 -130 95 -222 79z m-170 -541 c24 -9 31 -19 28 -40 0 -4 5 -5 12 -3
16 6 42 -31 68 -97 17 -42 21 -74 20 -149 0 -105 -10 -141 -44 -170 -43 -36
-169 -63 -304 -64 -39 0 -69 -3 -66 -7 6 -11 -9 -10 -26 1 -9 6 -11 15 -6 27
5 11 7 25 6 32 -1 6 2 12 8 12 5 0 7 9 4 20 -3 12 0 20 8 20 7 0 10 3 6 6 -3
4 0 21 8 39 7 19 11 36 7 39 -3 3 0 6 7 6 7 0 10 4 7 9 -7 11 35 143 70 220
28 61 62 104 75 95 5 -3 9 0 9 6 0 7 7 10 15 7 8 -4 17 -2 21 4 3 6 13 7 23 4
9 -4 28 -12 44 -17z m-1203 -2056 c0 -4 -6 -14 -12 -22 -11 -12 -10 -12 3 -2
9 6 20 8 24 4 5 -4 5 1 2 10 -5 14 -2 16 16 9 12 -5 21 -16 21 -24 -1 -10 4
-13 14 -9 11 4 14 1 9 -12 -4 -10 -3 -15 3 -11 16 10 115 -209 113 -247 -4
-46 -196 -239 -280 -282 -38 -19 -88 -22 -77 -4 5 7 2 9 -9 5 -8 -3 -21 1 -27
9 -7 8 -9 14 -4 14 5 0 3 4 -5 9 -8 5 -15 25 -15 45 -1 20 -5 36 -11 36 -5 0
-3 5 5 10 13 9 13 11 0 20 -13 9 -13 11 0 20 9 5 10 10 3 10 -6 0 -10 8 -8 18
1 9 8 16 16 14 9 -2 10 0 1 10 -11 14 -14 80 -3 73 4 -2 7 14 7 35 1 22 16 64
37 104 20 36 33 66 29 66 -4 0 -2 4 3 8 6 4 19 20 28 35 25 38 117 77 117 49z"/>
<path d="M2935 4011 c6 -11 4 -13 -11 -7 -10 4 -15 4 -11 0 4 -4 1 -14 -5 -23
-10 -13 -10 -14 2 -3 18 15 34 16 24 0 -4 -6 -3 -8 4 -5 12 8 10 32 -3 44 -4
5 -5 2 0 -6z"/>
<path d="M2814 3998 c-4 -5 -3 -12 0 -15 3 -4 6 -1 6 7 0 9 3 10 13 1 10 -8
14 -7 14 2 0 15 -25 18 -33 5z"/>
<path d="M2836 3958 c2 -4 14 -5 26 -3 32 7 32 13 -1 11 -16 0 -27 -4 -25 -8z"/>
<path d="M2880 3940 c-9 -6 -10 -10 -3 -10 6 0 15 5 18 10 8 12 4 12 -15 0z"/>
<path d="M2786 3922 c-3 -5 1 -9 9 -9 8 0 15 4 15 9 0 4 -4 8 -9 8 -6 0 -12
-4 -15 -8z"/>
<path d="M2821 3884 c0 -11 3 -14 6 -6 3 7 2 16 -1 19 -3 4 -6 -2 -5 -13z"/>
<path d="M2851 3884 c0 -11 3 -14 6 -6 3 7 2 16 -1 19 -3 4 -6 -2 -5 -13z"/>
<path d="M2759 3888 c-5 -18 -6 -38 -1 -34 7 8 12 36 6 36 -2 0 -4 -1 -5 -2z"/>
<path d="M2790 3841 c0 -10 19 -25 25 -20 1 2 -3 10 -11 17 -8 7 -14 8 -14 3z"/>
<path d="M2755 3823 c3 -3 0 -11 -5 -18 -7 -8 -5 -12 4 -12 14 0 16 22 3 32
-4 3 -5 2 -2 -2z"/>
<path d="M2731 3771 c-19 -12 -22 -38 -5 -38 11 0 11 3 1 16 -10 12 -9 14 4 9
10 -4 16 -1 16 8 0 8 -1 14 -1 14 -1 0 -7 -4 -15 -9z"/>
<path d="M2750 3725 c0 -5 5 -17 10 -25 5 -8 10 -10 10 -5 0 6 -5 17 -10 25
-5 8 -10 11 -10 5z"/>
<path d="M2713 3703 c4 -3 1 -13 -6 -22 -11 -14 -10 -14 5 -2 16 12 16 31 1
31 -4 0 -3 -3 0 -7z"/>
<path d="M2736 3673 c-6 -14 -5 -15 5 -6 7 7 10 15 7 18 -3 3 -9 -2 -12 -12z"/>
<path d="M2757 3667 c-3 -8 1 -14 8 -14 7 0 11 6 8 14 -3 7 -6 13 -8 13 -2 0
-5 -6 -8 -13z"/>
<path d="M2691 3646 c-9 -10 -8 -15 2 -19 8 -3 13 3 13 14 0 23 0 23 -15 5z"/>
<path d="M2710 3560 c0 -5 5 -10 10 -10 6 0 10 5 10 10 0 6 -4 10 -10 10 -5 0
-10 -4 -10 -10z"/>
<path d="M2667 3533 c3 -7 6 -13 8 -13 2 0 5 6 8 13 3 8 -1 14 -8 14 -7 0 -11
-6 -8 -14z"/>
<path d="M2695 3529 c-4 -6 -5 -12 -2 -15 2 -3 7 2 10 11 7 17 1 20 -8 4z"/>
<path d="M1668 1943 c7 -3 16 -2 19 1 4 3 -2 6 -13 5 -11 0 -14 -3 -6 -6z"/>
<path d="M1693 1925 c-3 -9 -3 -18 -1 -21 3 -3 8 4 11 16 6 23 -1 27 -10 5z"/>
<path d="M1715 1921 c-3 -5 -2 -12 3 -15 5 -3 9 1 9 9 0 17 -3 19 -12 6z"/>
<path d="M1636 1902 c-3 -5 1 -9 9 -9 8 0 12 4 9 9 -3 4 -7 8 -9 8 -2 0 -6 -4
-9 -8z"/>
<path d="M1633 1845 c0 -8 4 -15 9 -15 4 0 8 4 8 9 0 6 -4 12 -8 15 -5 3 -9
-1 -9 -9z"/>
<path d="M1660 1805 c8 -11 15 -21 16 -23 1 -2 5 5 8 15 4 9 4 14 0 10 -4 -4
-14 -1 -23 6 -14 11 -15 10 -1 -8z"/>
<path d="M1600 1800 c-9 -6 -10 -10 -3 -10 6 0 15 5 18 10 8 12 4 12 -15 0z"/>
<path d="M1633 1785 c0 -8 4 -12 9 -9 5 3 6 10 3 15 -9 13 -12 11 -12 -6z"/>
<path d="M1595 1771 c-3 -5 0 -13 6 -17 7 -4 9 -3 5 4 -3 5 0 13 6 15 9 4 10
6 1 6 -6 1 -14 -3 -18 -8z"/>
<path d="M1633 1725 c0 -8 4 -12 9 -9 5 3 6 10 3 15 -9 13 -12 11 -12 -6z"/>
<path d="M1595 1710 c10 -11 20 -20 23 -20 3 0 -3 9 -13 20 -10 11 -20 20 -23
20 -3 0 3 -9 13 -20z"/>
<path d="M1563 1698 c-4 -7 -8 -24 -8 -38 0 -14 -3 -30 -7 -35 -4 -6 2 -11 12
-11 13 0 16 5 11 16 -9 19 -8 51 2 68 5 6 6 12 3 12 -3 0 -8 -6 -13 -12z"/>
<path d="M1599 1648 c-5 -18 -6 -38 -1 -34 7 8 12 36 6 36 -2 0 -4 -1 -5 -2z"/>
<path d="M1589 1577 c6 -8 7 -18 3 -22 -4 -5 -1 -5 6 -1 10 6 10 11 1 22 -6 8
-14 14 -16 14 -3 0 0 -6 6 -13z"/>
<path d="M1571 1554 c0 -11 3 -14 6 -6 3 7 2 16 -1 19 -3 4 -6 -2 -5 -13z"/>
<path d="M1533 1477 c-3 -5 0 -14 6 -20 9 -9 10 -7 5 8 -7 17 -5 18 7 8 13
-10 16 -10 16 0 0 15 -25 18 -34 4z"/>
<path d="M1586 1456 c5 -12 4 -17 -3 -13 -5 3 -10 -1 -10 -9 0 -13 2 -13 16 0
12 13 13 18 2 28 -10 11 -11 9 -5 -6z"/>
<path d="M720 4425 c-70 -15 -108 -34 -153 -81 -67 -70 -114 -174 -259 -574
-197 -545 -245 -681 -253 -723 -2 -10 -7 -27 -10 -37 -3 -10 -15 -69 -25 -132
-16 -87 -19 -145 -16 -253 2 -77 7 -153 11 -170 31 -147 60 -213 113 -262 32
-29 94 -65 135 -77 25 -8 22 -39 -23 -225 -60 -254 -78 -395 -75 -596 1 -93 6
-183 9 -200 35 -154 72 -259 118 -331 58 -93 126 -133 221 -132 31 1 57 5 57
9 0 5 5 9 11 9 5 0 7 -6 4 -12 -4 -7 0 -5 8 5 8 9 21 17 30 17 9 0 18 4 22 9
3 6 14 8 25 6 11 -2 19 0 17 5 -1 4 2 8 6 8 5 1 15 8 21 18 8 10 20 15 29 11
11 -4 14 -2 11 7 -3 7 8 21 23 31 15 10 34 27 41 37 7 10 18 16 23 12 5 -3 8
0 7 8 -2 7 4 12 12 10 8 -2 12 0 8 3 -11 11 11 47 24 39 6 -4 8 -3 5 3 -4 6 6
28 21 49 15 22 36 56 47 76 10 20 22 35 25 33 4 -2 6 6 6 18 -1 15 4 21 14 19
8 -2 12 0 8 4 -4 4 -2 14 5 22 9 12 9 14 0 9 -8 -5 -7 2 2 20 8 15 15 34 15
41 0 6 4 12 8 12 5 0 9 6 9 13 0 6 11 35 23 62 13 28 25 59 27 70 2 10 7 22
11 25 4 3 9 14 10 25 2 11 12 37 22 58 10 20 14 34 8 31 -5 -4 -4 4 3 17 7 13
14 29 16 34 26 102 81 256 97 275 14 16 15 20 4 11 -21 -16 -22 -12 -7 26 6
15 13 42 16 58 2 17 8 34 13 39 5 5 6 15 3 22 -3 8 0 15 6 15 26 3 30 4 37 11
3 4 -3 5 -15 3 -20 -4 -22 -1 -15 28 4 18 8 40 9 49 1 10 4 20 7 24 4 3 4 13
1 22 -4 8 -2 13 3 9 6 -3 16 -1 24 5 12 8 12 9 -3 4 -22 -7 -36 22 -16 35 10
6 10 9 2 9 -7 0 -13 5 -13 11 0 5 5 7 10 4 6 -3 10 -1 10 4 0 6 -4 11 -9 11
-5 0 -9 18 -9 40 0 22 -4 45 -7 50 -4 6 -1 18 6 26 10 12 9 13 -5 8 -16 -6
-18 -1 -19 53 -1 12 -3 20 -5 18 -3 -2 -20 15 -38 39 -45 59 -109 90 -172 83
-75 -8 -84 -11 -109 -35 -13 -13 -28 -20 -35 -16 -6 4 -8 3 -5 -3 4 -6 -3 -19
-14 -29 -17 -16 -22 -16 -29 -4 -6 8 -10 10 -10 4 0 -5 5 -15 11 -21 7 -7 3
-16 -15 -30 -14 -11 -22 -23 -19 -27 3 -3 2 -6 -4 -6 -6 0 -14 -12 -17 -26 -6
-21 -10 -23 -21 -14 -11 9 -12 7 -9 -7 3 -10 -1 -36 -9 -58 -11 -30 -19 -40
-35 -39 -15 1 -19 -3 -14 -15 5 -14 4 -14 -14 -1 -18 14 -18 14 -5 -3 14 -17
16 -18 27 -2 29 39 18 -10 -33 -145 -84 -227 -163 -463 -163 -488 0 -19 5 -23
27 -20 24 3 29 11 53 90 29 91 107 218 136 218 8 0 13 4 10 9 -3 4 19 20 49
35 60 29 71 32 59 13 -5 -7 -1 -4 8 6 25 26 68 15 112 -31 84 -86 83 -241 -3
-366 -46 -67 -138 -143 -200 -167 -101 -37 -230 -18 -282 43 -11 11 -19 18
-19 15 0 -4 -9 1 -19 10 -11 9 -17 21 -14 26 3 6 1 7 -5 4 -5 -4 -24 14 -41
40 -28 41 -33 56 -30 79 0 4 -4 10 -9 13 -6 4 -12 18 -14 31 -2 14 -7 31 -11
38 -5 6 -6 12 -4 12 2 0 1 21 -4 48 -4 31 -3 52 5 61 8 12 8 13 -1 7 -11 -6
-18 21 -15 55 1 3 4 44 7 91 9 122 9 123 33 122 12 -1 19 3 16 7 -3 5 -9 7
-14 4 -18 -11 -22 19 -5 32 13 9 14 13 5 13 -23 0 26 39 54 42 14 2 28 7 32
11 4 4 13 2 20 -4 8 -7 14 -6 20 2 4 8 3 9 -4 5 -7 -4 -12 -4 -11 1 0 4 29 22
64 38 35 17 61 26 59 20 -3 -5 0 -3 8 5 17 19 88 73 88 66 0 -3 13 7 28 22 15
15 27 30 25 34 -5 10 33 28 42 20 5 -4 5 -1 1 6 -9 15 22 55 36 46 4 -3 7 -1
6 4 -4 12 79 102 93 102 6 0 7 5 3 12 -5 7 -2 9 7 6 10 -4 15 1 16 12 1 16 23
47 61 86 6 7 12 15 12 19 0 7 61 87 73 96 5 3 8 8 7 10 -4 7 35 69 43 69 5 0
5 5 1 12 -5 8 -2 9 11 4 14 -5 15 -4 7 6 -12 15 9 53 23 40 5 -4 5 -2 1 5 -8
14 31 96 43 89 4 -3 7 5 7 17 -1 12 4 21 10 20 7 -1 10 6 7 17 -3 11 0 20 6
20 6 0 10 6 8 13 -1 6 6 11 17 10 12 -1 15 2 8 9 -12 12 -10 19 35 116 18 40
33 76 33 80 0 5 11 32 25 60 14 29 25 56 25 61 0 14 31 22 44 12 8 -7 12 -4
12 8 0 16 -4 17 -24 10 -26 -10 -26 -11 7 76 12 31 25 50 34 49 10 -1 13 4 10
14 -4 9 -2 13 4 9 5 -3 10 0 10 8 0 13 -3 13 -18 -1 -17 -15 -17 -14 -7 20 6
19 15 33 19 30 5 -3 6 2 3 10 -4 10 -1 16 7 16 10 0 11 2 2 8 -17 11 -4 58 20
71 13 7 15 9 5 7 -12 -4 -18 0 -18 10 0 8 3 13 8 10 4 -2 6 14 4 36 -4 38 -3
40 19 34 l24 -7 -23 13 c-18 11 -20 16 -10 27 11 11 11 13 0 7 -7 -4 -11 -4
-10 1 5 17 -13 92 -32 136 -24 53 -98 123 -146 136 -115 32 -227 -33 -353
-202 -35 -48 -68 -84 -74 -80 -5 3 -8 0 -5 -8 3 -8 -15 -44 -39 -81 -24 -36
-43 -71 -43 -77 0 -6 -4 -11 -9 -11 -5 0 -14 -14 -20 -31 -6 -17 -15 -28 -21
-24 -6 3 -7 0 -4 -9 3 -9 1 -16 -5 -16 -6 0 -10 -3 -9 -7 2 -5 -3 -23 -11 -41
-11 -25 -16 -30 -23 -20 -7 10 -8 9 -4 -4 3 -10 -19 -69 -50 -135 -62 -133
-65 -140 -92 -203 -26 -58 -159 -390 -166 -412 -3 -11 -15 -18 -29 -18 -27 0
-91 52 -79 65 4 4 1 5 -6 1 -8 -5 -22 0 -34 10 -22 21 -53 74 -50 87 1 4 -2 7
-6 7 -4 0 -9 8 -10 18 -1 9 -3 26 -4 37 -2 15 3 20 22 20 14 0 29 -4 33 -10 5
-6 7 -4 4 5 -2 10 -15 15 -35 14 -18 0 -32 2 -33 5 -5 38 -4 51 5 51 7 0 7 3
-1 8 -14 9 -12 28 7 62 13 24 12 24 -5 10 -15 -12 -17 -12 -10 -1 4 8 8 27 7
43 0 15 3 26 8 23 5 -3 12 -1 15 5 4 6 1 9 -7 8 -7 -2 -12 2 -12 7 1 6 4 36 8
68 14 136 100 378 127 361 7 -4 9 -3 6 3 -8 13 22 55 34 47 5 -3 8 0 7 6 -2 6
13 23 31 38 19 15 31 20 27 12 -4 -8 0 -6 8 4 9 11 16 16 16 12 0 -5 7 -3 15
4 20 16 111 19 107 3 -1 -7 2 -13 8 -13 5 0 10 5 10 10 0 23 18 7 35 -30 16
-35 17 -47 7 -91 -24 -103 -7 -141 42 -93 27 28 96 157 96 180 0 9 4 13 9 10
5 -3 14 1 21 9 11 13 10 14 -5 9 -13 -5 -16 -3 -13 7 3 8 11 13 17 11 7 -1 9
2 6 8 -8 12 15 100 26 100 4 0 6 6 6 13 -1 24 16 97 24 103 4 2 6 11 2 19 -3
8 0 15 6 15 6 0 8 7 4 16 -3 9 0 20 8 25 11 6 11 9 1 9 -9 0 -10 5 -4 18 5 9
8 25 7 35 -2 9 0 17 4 17 4 0 6 14 3 30 -2 17 2 38 9 47 8 9 9 14 4 11 -6 -4
-12 3 -12 14 -2 19 -1 19 16 4 15 -13 18 -14 18 -1 0 8 -5 11 -10 8 -6 -4 -8
0 -4 10 4 11 2 14 -9 10 -17 -6 -18 8 -1 26 10 11 10 13 0 7 -8 -5 -13 -1 -13
11 -1 23 -28 57 -59 73 -33 17 -105 19 -171 5z m464 -886 c-3 -5 0 -9 6 -9 38
0 60 -70 61 -187 0 -115 -11 -158 -58 -209 -57 -63 -202 -186 -269 -229 -97
-63 -233 -127 -252 -120 -9 3 -13 3 -9 -1 9 -9 -45 -34 -87 -41 -25 -4 -28 -2
-22 14 4 10 17 41 27 68 54 136 167 370 178 367 7 -1 10 2 7 7 -6 9 62 118
101 161 13 14 23 28 23 33 0 4 5 5 10 2 6 -4 10 -3 9 2 -4 22 2 35 15 30 10
-4 13 -1 9 9 -4 12 7 19 29 15 4 0 4 7 1 17 -6 15 -5 15 10 4 14 -12 16 -11
12 7 -2 14 3 22 18 27 12 4 24 10 27 15 3 5 15 10 25 12 11 2 28 7 38 12 9 4
26 5 37 2 11 -3 20 -1 20 3 0 4 9 6 20 3 11 -3 17 -9 14 -14z"/>
<path d="M1116 3518 c3 -4 11 -5 19 -1 21 7 19 12 -4 10 -11 0 -18 -5 -15 -9z"/>
<path d="M1140 3504 c0 -1 6 -7 14 -13 10 -9 15 -8 19 2 3 8 -3 13 -14 13 -11
0 -19 -1 -19 -2z"/>
<path d="M1093 3475 c0 -7 6 -11 14 -8 7 3 13 6 13 8 0 2 -6 5 -13 8 -8 3 -14
-1 -14 -8z"/>
<path d="M1020 3448 c14 -17 38 -18 44 -2 4 11 1 12 -13 5 -11 -7 -22 -7 -29
-1 -9 7 -9 7 -2 -2z"/>
<path d="M1005 3400 c-16 -17 -16 -20 -3 -15 9 4 19 13 22 21 7 19 2 18 -19
-6z"/>
<path d="M914 3363 c3 -3 16 -7 28 -7 13 -1 30 -5 38 -10 12 -7 13 -6 3 4 -7
8 -27 15 -44 16 -17 2 -28 0 -25 -3z"/>
<path d="M878 3343 c7 -3 16 -2 19 1 4 3 -2 6 -13 5 -11 0 -14 -3 -6 -6z"/>
<path d="M870 3326 c0 -2 7 -7 16 -10 8 -3 12 -2 9 4 -6 10 -25 14 -25 6z"/>
<path d="M914 3313 c2 -10 0 -23 -5 -29 -5 -6 -4 -11 5 -11 13 0 16 40 4 52
-4 4 -5 -1 -4 -12z"/>
<path d="M819 3273 c-13 -17 -13 -17 6 -3 11 8 22 16 24 17 2 2 0 3 -6 3 -6 0
-17 -8 -24 -17z"/>
<path d="M874 3268 c3 -19 25 -55 26 -41 0 6 -5 15 -10 18 -6 4 -8 10 -5 15 3
5 1 11 -4 14 -5 4 -8 0 -7 -6z"/>
<path d="M798 3239 c-7 -4 3 -7 22 -5 19 2 39 -2 43 -8 6 -7 7 -6 5 4 -5 15
-49 22 -70 9z"/>
<path d="M815 3209 c-4 -6 -5 -12 -2 -15 2 -3 7 2 10 11 7 17 1 20 -8 4z"/>
<path d="M848 3192 c4 -10 7 -12 10 -4 2 7 9 9 15 5 7 -3 8 -2 4 2 -14 16 -36
14 -29 -3z"/>
<path d="M833 3153 c0 -9 4 -10 14 -2 7 6 13 12 13 14 0 1 -6 2 -13 2 -8 0
-14 -6 -14 -14z"/>
<path d="M730 3121 c0 -6 4 -13 10 -16 6 -3 7 1 4 9 -7 18 -14 21 -14 7z"/>
<path d="M796 3098 c3 -5 10 -6 15 -3 13 9 11 12 -6 12 -8 0 -12 -4 -9 -9z"/>
<path d="M773 3085 c0 -8 5 -11 10 -8 7 4 8 -1 3 -12 -5 -15 -4 -16 9 -5 9 7
14 13 13 14 -2 1 -10 7 -19 14 -13 9 -16 9 -16 -3z"/>
<path d="M716 3047 c3 -10 9 -15 12 -12 3 3 0 11 -7 18 -10 9 -11 8 -5 -6z"/>
<path d="M696 3022 c-3 -5 1 -9 9 -9 8 0 12 4 9 9 -3 4 -7 8 -9 8 -2 0 -6 -4
-9 -8z"/>
<path d="M750 3014 c6 -6 7 -14 3 -17 -3 -4 -1 -7 6 -7 7 0 11 6 8 14 -3 8 -1
17 6 19 7 3 2 4 -10 4 -15 -1 -19 -5 -13 -13z"/>
<path d="M695 2990 c-3 -6 1 -7 9 -4 18 7 21 14 7 14 -6 0 -13 -4 -16 -10z"/>
<path d="M677 2952 c-14 -15 -15 -19 -2 -19 8 0 11 5 8 10 -4 6 0 8 10 4 11
-4 14 -2 10 9 -7 18 -7 18 -26 -4z"/>
<path d="M710 2899 c0 -5 5 -7 10 -4 6 3 10 8 10 11 0 2 -4 4 -10 4 -5 0 -10
-5 -10 -11z"/>
<path d="M640 2872 c-18 -14 -19 -19 -7 -19 9 0 13 5 10 10 -4 6 0 8 9 5 9 -4
15 0 15 8 0 18 0 18 -27 -4z"/>
<path d="M691 2844 c0 -11 3 -14 6 -6 3 7 2 16 -1 19 -3 4 -6 -2 -5 -13z"/>
<path d="M615 2829 c-4 -6 -5 -12 -2 -15 2 -3 7 2 10 11 7 17 1 20 -8 4z"/>
<path d="M625 2799 c-3 -4 2 -6 10 -5 21 3 28 13 10 13 -9 0 -18 -4 -20 -8z"/>
<path d="M2719 4375 c-1 -3 -2 -8 -3 -12 -1 -5 -5 -15 -10 -23 -7 -12 -6 -13
4 -3 13 12 23 43 14 43 -2 0 -5 -2 -5 -5z"/>
<path d="M3426 4362 c-3 -5 1 -9 9 -9 8 0 15 4 15 9 0 4 -4 8 -9 8 -6 0 -12
-4 -15 -8z"/>
<path d="M2720 4318 c-12 -8 -12 -9 2 -5 9 3 19 1 22 -6 3 -9 5 -9 5 0 1 18
-13 23 -29 11z"/>
<path d="M3436 4278 c3 -4 11 -5 19 -1 21 7 19 12 -4 10 -11 0 -18 -5 -15 -9z"/>
<path d="M2705 4260 c-3 -6 1 -7 9 -4 18 7 21 14 7 14 -6 0 -13 -4 -16 -10z"/>
<path d="M3472 4251 c7 -9 13 -18 15 -20 1 -2 1 5 0 16 0 11 -7 20 -14 20 -10
0 -10 -4 -1 -16z"/>
<path d="M1011 4206 c-9 -10 -8 -15 2 -19 8 -3 13 3 13 14 0 23 0 23 -15 5z"/>
<path d="M4145 4205 c-123 -29 -215 -94 -282 -197 -25 -39 -85 -147 -133 -242
-133 -256 -178 -428 -167 -631 12 -211 52 -287 190 -364 49 -27 151 -34 198
-13 19 8 41 14 49 13 13 -2 13 -1 0 9 -13 9 -13 12 1 23 9 6 17 17 17 22 1 6
6 10 11 10 5 0 13 4 18 9 5 5 3 6 -4 2 -14 -8 -16 6 -7 41 4 13 10 21 14 18 5
-3 6 4 3 15 -3 11 0 20 6 20 6 0 10 3 9 8 -6 16 37 122 49 122 7 0 13 5 13 11
0 5 -5 7 -11 3 -7 -4 -6 3 2 17 7 13 14 26 14 29 5 27 18 49 27 44 6 -4 8 -2
5 4 -4 5 -1 34 7 64 17 64 7 80 -31 52 -34 -25 -87 -44 -122 -44 -39 1 -114
37 -105 51 4 8 3 9 -4 5 -14 -8 -42 17 -68 62 -16 29 -17 34 -4 42 13 8 12 10
-2 10 -18 0 -20 7 -22 78 -1 17 -3 32 -6 32 -3 0 -5 13 -5 29 0 17 4 27 10 23
6 -3 4 2 -4 11 -7 9 -9 17 -4 17 5 0 7 15 5 34 -6 53 11 72 85 97 86 28 161
32 183 10 8 -9 11 -11 6 -3 -7 10 -3 12 18 8 37 -7 111 -50 109 -64 -2 -6 4
-9 12 -6 18 7 200 -173 215 -212 12 -31 -1 -60 -57 -124 -22 -25 -55 -66 -75
-92 -19 -26 -38 -44 -42 -40 -4 3 -4 -1 -1 -10 4 -9 1 -19 -4 -23 -6 -3 -9
-11 -6 -16 4 -5 -2 -9 -12 -9 -11 0 -14 -3 -7 -8 17 -11 -13 -75 -31 -68 -8 3
-15 1 -15 -4 0 -6 6 -10 14 -10 8 0 13 -6 12 -12 -9 -45 -20 -74 -30 -83 -6
-5 -12 -26 -13 -45 -3 -47 -38 -218 -52 -254 -11 -28 -12 -29 -69 -21 -31 4
-97 9 -145 11 l-88 3 -44 -43 c-55 -56 -95 -134 -101 -197 -3 -38 2 -59 26
-103 39 -75 92 -137 146 -171 48 -30 52 -41 29 -84 -20 -40 -34 -42 -101 -14
-90 37 -113 43 -158 37 -88 -11 -209 -129 -269 -262 -11 -26 -40 -119 -63
-207 -23 -88 -64 -241 -92 -341 -43 -155 -50 -190 -47 -251 4 -77 26 -133 67
-169 31 -29 141 -98 133 -83 -5 8 -2 8 11 1 21 -11 78 -21 137 -24 20 -1 37
-7 37 -13 0 -5 4 -4 9 4 10 16 101 42 115 34 5 -4 6 -1 3 4 -6 10 6 20 26 21
5 0 15 9 23 19 7 10 14 14 14 9 0 -5 9 3 21 18 18 23 23 25 37 14 13 -11 14
-11 8 0 -9 15 31 55 46 46 4 -3 7 0 6 8 -2 7 3 12 10 10 8 -1 11 2 7 7 -5 9
35 38 43 32 2 -2 7 1 10 5 4 4 1 4 -5 0 -10 -5 -13 5 -14 38 -1 25 -3 49 -4
54 -2 4 -6 17 -10 30 -4 12 -11 22 -16 22 -5 0 -9 6 -9 14 0 8 -21 33 -46 55
-47 41 -51 42 -154 45 -66 2 -180 62 -180 95 0 7 -4 10 -9 7 -4 -3 -13 6 -20
20 -6 15 -7 23 -1 19 5 -3 10 -2 10 4 0 5 -5 11 -11 13 -8 3 -9 15 -4 36 3 18
11 30 16 27 5 -4 6 0 3 8 -3 8 2 20 11 27 21 18 93 24 111 9 8 -6 14 -8 14 -5
0 4 14 -1 30 -11 17 -9 30 -21 30 -25 0 -4 6 -8 14 -8 30 0 142 -127 211 -239
39 -63 72 -119 74 -125 2 -6 7 -13 10 -16 9 -7 93 -124 174 -241 36 -53 83
-111 103 -129 41 -36 108 -69 139 -70 17 0 17 -2 5 -10 -9 -6 -10 -10 -3 -10
6 0 15 5 19 11 4 8 9 7 15 -2 6 -10 9 -11 9 -1 0 6 5 12 10 12 7 0 7 -6 1 -18
-7 -14 -6 -19 3 -19 7 0 13 7 12 14 -1 8 16 20 38 28 22 8 53 24 70 36 16 12
36 22 43 22 7 0 11 2 8 5 -5 5 20 32 30 32 3 0 17 12 30 26 14 15 25 23 25 18
0 -5 5 -1 11 9 6 9 14 15 18 12 5 -2 11 4 14 15 3 11 13 20 22 20 9 0 13 4 10
10 -3 5 -2 10 3 10 19 0 132 184 132 216 0 7 5 16 11 20 8 4 9 0 4 -15 -3 -11
-2 -21 3 -21 6 0 9 15 8 33 -3 34 11 77 25 77 5 0 6 6 3 14 -3 7 2 21 11 30 9
9 14 16 12 16 -3 0 5 29 18 64 13 35 25 82 26 103 4 51 8 58 26 36 13 -17 13
-17 4 3 -6 12 -7 25 -3 29 4 3 3 5 -3 3 -5 -2 -10 2 -10 7 0 6 15 10 34 10 22
0 36 5 38 15 3 9 1 11 -4 5 -7 -9 -25 -11 -63 -6 -14 2 -12 48 3 58 17 11 51
10 60 -2 5 -6 7 -4 4 5 -4 16 -45 22 -62 9 -7 -5 -11 14 -12 52 -1 40 2 59 10
59 8 0 9 3 1 8 -6 4 -13 17 -16 30 -5 16 -2 22 10 22 16 1 16 1 1 10 -11 6
-19 30 -24 66 -4 32 -11 66 -15 78 -20 49 -23 62 -21 75 1 8 -2 10 -10 6 -7
-5 -10 -3 -7 6 2 7 -4 22 -14 33 -20 22 -25 51 -6 40 7 -4 8 -3 4 5 -4 6 -12
9 -17 5 -6 -3 -15 8 -22 25 -6 17 -16 31 -21 31 -5 0 -1 7 10 15 18 14 18 14
-3 8 -13 -3 -23 -1 -23 4 0 6 -11 27 -25 47 -13 20 -22 36 -19 36 3 0 -2 7
-11 16 -13 14 -14 19 -3 26 10 8 9 9 -3 5 -16 -5 -59 40 -59 62 0 5 -3 11 -7
13 -17 7 -62 76 -55 83 4 5 2 5 -4 2 -7 -4 -23 2 -35 13 -20 16 -21 19 -6 20
9 0 17 5 17 12 0 6 3 9 6 6 3 -4 26 14 52 38 32 29 54 42 68 40 13 -3 21 1 21
10 0 10 -4 11 -14 3 -10 -9 -13 -8 -13 5 0 14 11 20 32 17 4 0 5 5 2 13 -3 7
9 25 26 39 17 15 30 28 29 29 -1 2 8 23 19 48 12 25 33 86 47 135 33 110 33
113 34 148 1 16 4 26 9 24 9 -6 8 180 -1 190 -4 3 -1 13 6 21 10 13 9 14 -2 8
-9 -6 -12 -5 -9 5 3 8 -1 26 -9 42 -11 21 -11 27 -1 27 9 0 10 2 2 8 -7 4 -19
30 -27 59 -9 28 -21 61 -27 73 -10 18 -10 21 2 14 7 -4 5 2 -6 14 -10 12 -16
28 -12 37 3 9 2 14 -2 11 -5 -3 -26 32 -47 77 -21 45 -55 109 -76 141 -21 32
-36 63 -33 68 3 5 0 7 -6 6 -7 -2 -17 5 -23 16 -7 10 -22 30 -34 44 -22 24
-27 36 -24 55 1 5 -3 6 -8 3 -5 -3 -22 11 -37 31 -57 75 -159 163 -230 198
-80 40 -149 49 -229 30z m505 -1131 c0 -8 7 -28 15 -43 8 -16 17 -44 20 -62 3
-19 8 -47 11 -64 11 -62 6 -151 -9 -182 -14 -25 -26 -33 -81 -47 -119 -29
-256 -42 -256 -23 0 8 -3 8 -8 2 -8 -11 -67 -14 -77 -3 -11 11 15 79 27 72 6
-4 8 -2 5 3 -9 14 12 75 23 68 4 -3 7 1 6 8 0 6 4 12 9 12 6 0 9 -9 7 -19 -3
-23 0 -20 18 13 6 13 7 21 2 17 -6 -3 -13 -2 -17 4 -9 14 87 151 102 146 7 -3
10 1 7 8 -8 21 14 30 34 14 15 -12 16 -11 3 5 -8 9 -12 19 -10 20 55 41 107
75 119 79 21 7 50 -9 50 -28z m-506 -955 c-5 -8 -2 -9 11 -2 23 13 92 -11 129
-45 15 -15 65 -72 109 -127 45 -55 99 -121 122 -146 50 -56 87 -125 160 -295
63 -145 72 -207 51 -334 -23 -134 -72 -158 -180 -86 -74 49 -144 119 -152 152
-3 13 -10 22 -14 19 -11 -7 -22 24 -13 38 3 7 2 9 -2 4 -10 -8 -66 73 -59 85
3 4 1 8 -5 8 -15 0 -53 79 -45 93 4 7 4 9 -1 5 -4 -4 -25 26 -46 68 -21 41
-45 82 -54 90 -8 9 -13 20 -9 25 3 5 2 9 -3 8 -21 -4 -25 2 -8 14 17 13 17 14
-3 13 -12 -1 -21 2 -22 6 0 4 -12 20 -25 34 -35 37 -56 82 -43 90 6 4 5 10 -3
15 -8 5 -9 9 -4 9 6 0 10 17 9 38 0 20 3 45 8 55 6 12 5 17 -4 17 -9 0 -9 3 2
10 8 5 11 10 6 10 -5 0 -2 8 5 17 10 11 10 14 2 9 -14 -8 -18 6 -5 18 4 4 7
11 7 14 2 30 18 61 37 70 30 14 51 15 42 1z"/>
<path d="M4590 3079 c0 -5 5 -7 10 -4 6 3 10 8 10 11 0 2 -4 4 -10 4 -5 0 -10
-5 -10 -11z"/>
<path d="M4560 3055 c-7 -8 -16 -13 -20 -10 -4 2 -16 -5 -26 -18 l-19 -22 21
18 c17 14 23 15 27 5 4 -11 6 -11 6 0 1 8 6 10 14 6 6 -4 9 -4 5 1 -4 4 -3 14
3 22 6 7 9 13 6 13 -2 0 -10 -7 -17 -15z"/>
<path d="M4573 2997 c0 -12 1 -16 4 -9 3 9 9 10 17 3 9 -8 13 -6 13 4 0 8 -3
13 -5 10 -3 -3 -10 -1 -16 5 -8 6 -12 2 -13 -13z"/>
<path d="M4501 2954 c0 -11 3 -14 6 -6 3 7 2 16 -1 19 -3 4 -6 -2 -5 -13z"/>
<path d="M4429 2935 c4 -5 7 -22 6 -38 -1 -15 5 -33 13 -40 13 -10 14 -9 7 3
-12 19 -14 50 -4 70 5 11 2 16 -11 16 -12 0 -16 -4 -11 -11z"/>
<path d="M4506 2917 c3 -10 9 -15 12 -12 3 3 0 11 -7 18 -10 9 -11 8 -5 -6z"/>
<path d="M4411 2874 c0 -11 3 -14 6 -6 3 7 2 16 -1 19 -3 4 -6 -2 -5 -13z"/>
<path d="M4375 2809 c-4 -6 -5 -12 -2 -15 2 -3 7 2 10 11 7 17 1 20 -8 4z"/>
<path d="M4310 2770 c0 -5 5 -10 11 -10 5 0 7 5 4 10 -3 6 -8 10 -11 10 -2 0
-4 -4 -4 -10z"/>
<path d="M4371 2764 c0 -11 3 -14 6 -6 3 7 2 16 -1 19 -3 4 -6 -2 -5 -13z"/>
<path d="M4393 2763 c4 -3 1 -13 -6 -22 -11 -14 -10 -14 5 -2 16 12 16 31 1
31 -4 0 -3 -3 0 -7z"/>
<path d="M4316 2718 c2 -4 14 -5 26 -3 32 7 32 13 -1 11 -16 0 -27 -4 -25 -8z"/>
<path d="M4276 2675 c-3 -8 -1 -15 4 -15 6 0 10 7 10 15 0 8 -2 15 -4 15 -2 0
-6 -7 -10 -15z"/>
<path d="M4356 2682 c-3 -5 1 -9 9 -9 8 0 12 4 9 9 -3 4 -7 8 -9 8 -2 0 -6 -4
-9 -8z"/>
<path d="M4110 2079 c0 -5 5 -7 10 -4 6 3 10 8 10 11 0 2 -4 4 -10 4 -5 0 -10
-5 -10 -11z"/>
<path d="M4093 2043 c1 -14 5 -19 12 -14 5 5 18 7 27 6 10 -2 20 0 23 4 2 4
-8 7 -23 6 -15 -1 -30 3 -34 9 -4 6 -6 1 -5 -11z"/>
<path d="M4074 1998 c-4 -7 -4 -10 1 -6 4 4 15 2 24 -5 14 -11 14 -10 2 6 -16
20 -18 21 -27 5z"/>
<path d="M4110 1966 c0 -2 7 -7 16 -10 8 -3 12 -2 9 4 -6 10 -25 14 -25 6z"/>
<path d="M4078 1903 c7 -3 16 -2 19 1 4 3 -2 6 -13 5 -11 0 -14 -3 -6 -6z"/>
<path d="M4070 1886 c0 -2 7 -7 16 -10 8 -3 12 -2 9 4 -6 10 -25 14 -25 6z"/>
<path d="M4067 1859 c7 -7 15 -10 18 -7 3 3 -2 9 -12 12 -14 6 -15 5 -6 -5z"/>
<path d="M4091 1813 c-1 -18 13 -23 29 -11 12 8 12 9 -2 5 -9 -3 -19 -1 -22 6
-3 9 -5 9 -5 0z"/>
<path d="M4070 1782 c0 -5 10 -17 23 -28 22 -19 22 -19 4 2 -9 11 -14 24 -10
27 3 4 1 7 -5 7 -7 0 -12 -4 -12 -8z"/>
<path d="M4267 1489 c4 -13 8 -18 11 -10 2 7 -1 18 -6 23 -8 8 -9 4 -5 -13z"/>
<path d="M970 4200 c0 -5 5 -10 10 -10 6 0 10 5 10 10 0 6 -4 10 -10 10 -5 0
-10 -4 -10 -10z"/>
<path d="M3475 4181 c-6 -11 13 -26 22 -17 4 3 1 6 -6 6 -7 0 -9 5 -6 10 3 6
4 10 1 10 -3 0 -7 -4 -11 -9z"/>
<path d="M1003 4153 c-10 -10 -13 -14 -6 -10 6 5 16 6 21 3 5 -3 9 1 9 9 0 19
-1 19 -24 -2z"/>
<path d="M3450 4161 c0 -6 4 -13 10 -16 6 -3 7 1 4 9 -7 18 -14 21 -14 7z"/>
<path d="M2675 4140 c-3 -5 -1 -10 4 -10 6 0 11 5 11 10 0 6 -2 10 -4 10 -3 0
-8 -4 -11 -10z"/>
<path d="M3428 4133 c7 -3 16 -2 19 1 4 3 -2 6 -13 5 -11 0 -14 -3 -6 -6z"/>
<path d="M955 4121 c-3 -5 -2 -12 3 -15 5 -3 9 1 9 9 0 17 -3 19 -12 6z"/>
<path d="M1000 4125 c0 -2 6 -8 13 -14 10 -8 14 -7 14 2 0 8 -6 14 -14 14 -7
0 -13 -1 -13 -2z"/>
<path d="M3475 4120 c3 -5 8 -10 11 -10 2 0 4 5 4 10 0 6 -5 10 -11 10 -5 0
-7 -4 -4 -10z"/>
<path d="M3433 4085 c0 -8 4 -12 9 -9 5 3 6 10 3 15 -9 13 -12 11 -12 -6z"/>
<path d="M960 4060 c-9 -6 -10 -10 -3 -10 6 0 15 5 18 10 8 12 4 12 -15 0z"/>
<path d="M3435 4060 c-16 -7 -17 -9 -3 -9 9 -1 20 4 23 9 7 11 7 11 -20 0z"/>
<path d="M994 4033 c2 -9 8 -18 15 -19 6 -1 7 0 2 2 -6 3 -7 12 -4 20 3 8 1
14 -5 14 -6 0 -9 -8 -8 -17z"/>
<path d="M3461 4034 c0 -11 3 -14 6 -6 3 7 2 16 -1 19 -3 4 -6 -2 -5 -13z"/>
<path d="M945 4000 c-3 -6 1 -7 9 -4 18 7 21 14 7 14 -6 0 -13 -4 -16 -10z"/>
<path d="M980 4006 c0 -2 8 -10 18 -17 15 -13 16 -12 3 4 -13 16 -21 21 -21
13z"/>
<path d="M1547 3999 c7 -7 15 -10 18 -7 3 3 -2 9 -12 12 -14 6 -15 5 -6 -5z"/>
<path d="M2600 4006 c0 -2 8 -10 18 -17 15 -13 16 -12 3 4 -13 16 -21 21 -21
13z"/>
<path d="M960 3980 c-9 -6 -10 -10 -3 -10 6 0 15 5 18 10 8 12 4 12 -15 0z"/>
<path d="M3433 3970 c-1 -11 2 -20 5 -20 4 0 8 9 9 20 1 11 -2 20 -5 20 -4 0
-8 -9 -9 -20z"/>
<path d="M1575 3969 c-4 -6 -5 -12 -2 -15 2 -3 7 2 10 11 7 17 1 20 -8 4z"/>
<path d="M981 3954 c0 -11 3 -14 6 -6 3 7 2 16 -1 19 -3 4 -6 -2 -5 -13z"/>
<path d="M1593 3935 c0 -8 4 -12 9 -9 5 3 6 10 3 15 -9 13 -12 11 -12 -6z"/>
<path d="M2199 3948 c-5 -18 -6 -39 -2 -34 4 3 11 2 17 -4 8 -6 12 -3 12 9 0
12 -5 17 -15 13 -9 -3 -12 -1 -7 6 4 7 5 12 2 12 -3 0 -6 -1 -7 -2z"/>
<path d="M2277 3933 c3 -7 6 -13 8 -13 2 0 5 6 8 13 3 8 -1 14 -8 14 -7 0 -11
-6 -8 -14z"/>
<path d="M2574 3938 c-4 -7 -4 -10 1 -6 4 4 15 2 24 -5 14 -11 14 -10 2 6 -16
20 -18 21 -27 5z"/>
<path d="M3388 3943 c7 -3 16 -2 19 1 4 3 -2 6 -13 5 -11 0 -14 -3 -6 -6z"/>
<path d="M950 3919 c0 -5 5 -7 10 -4 6 3 10 8 10 11 0 2 -4 4 -10 4 -5 0 -10
-5 -10 -11z"/>
<path d="M914 3879 c-1 -16 2 -29 6 -29 7 0 7 46 0 54 -3 2 -6 -9 -6 -25z"/>
<path d="M1597 3892 c5 -11 3 -13 -8 -7 -8 5 -11 5 -6 -1 5 -5 12 -9 15 -9 4
0 14 -4 22 -9 12 -7 13 -6 3 5 -7 7 -13 17 -13 22 0 4 6 5 13 1 6 -4 8 -3 4 1
-14 16 -36 14 -30 -3z"/>
<path d="M2147 3899 c7 -7 15 -10 18 -7 3 3 -2 9 -12 12 -14 6 -15 5 -6 -5z"/>
<path d="M3350 3898 c0 -4 4 -8 9 -8 6 0 12 4 15 8 3 5 -1 9 -9 9 -8 0 -15 -4
-15 -9z"/>
<path d="M2188 3893 c7 -3 16 -2 19 1 4 3 -2 6 -13 5 -11 0 -14 -3 -6 -6z"/>
<path d="M2235 3889 c-4 -6 -5 -12 -2 -15 2 -3 7 2 10 11 7 17 1 20 -8 4z"/>
<path d="M2581 3884 c0 -11 3 -14 6 -6 3 7 2 16 -1 19 -3 4 -6 -2 -5 -13z"/>
<path d="M3421 3883 c7 -12 15 -20 18 -17 3 2 -3 12 -13 22 -17 16 -18 16 -5
-5z"/>
<path d="M3394 3873 c2 -9 8 -18 15 -19 6 -1 7 0 1 3 -5 2 -8 9 -5 13 3 5 1
11 -4 14 -5 4 -8 -2 -7 -11z"/>
<path d="M958 3863 c7 -3 16 -2 19 1 4 3 -2 6 -13 5 -11 0 -14 -3 -6 -6z"/>
<path d="M1627 3831 c-4 -17 -3 -21 5 -13 5 5 8 16 6 23 -3 8 -7 3 -11 -10z"/>
<path d="M3326 3841 c-2 -3 16 -6 40 -7 24 0 42 2 39 4 -7 8 -75 10 -79 3z"/>
<path d="M892 3811 c5 -16 35 -24 43 -11 3 5 -3 7 -12 6 -10 -2 -22 2 -26 8
-6 7 -7 6 -5 -3z"/>
<path d="M2171 3813 c-1 -17 16 -25 25 -12 4 7 3 9 -4 5 -5 -3 -13 0 -15 6 -4
9 -6 10 -6 1z"/>
<path d="M2531 3804 c0 -11 3 -14 6 -6 3 7 2 16 -1 19 -3 4 -6 -2 -5 -13z"/>
<path d="M1630 3796 c0 -2 8 -10 18 -17 15 -13 16 -12 3 4 -13 16 -21 21 -21
13z"/>
<path d="M575 3780 c-3 -6 1 -7 9 -4 18 7 21 14 7 14 -6 0 -13 -4 -16 -10z"/>
<path d="M1602 3778 c-17 -17 -15 -25 6 -30 11 -3 19 0 19 7 0 8 -7 11 -16 7
-14 -5 -14 -3 -2 11 15 20 11 23 -7 5z"/>
<path d="M3331 3764 c0 -11 3 -14 6 -6 3 7 2 16 -1 19 -3 4 -6 -2 -5 -13z"/>
<path d="M3366 3771 c-19 -7 -19 -8 0 -13 13 -3 21 0 21 8 0 8 -1 14 -1 13 -1
0 -10 -4 -20 -8z"/>
<path d="M588 3752 c-3 -11 0 -19 7 -19 7 0 10 8 7 19 -2 10 -6 18 -7 18 -1 0
-5 -8 -7 -18z"/>
<path d="M610 3761 c0 -6 4 -13 10 -16 6 -3 7 1 4 9 -7 18 -14 21 -14 7z"/>
<path d="M500 3744 c0 -1 6 -7 14 -13 10 -9 15 -8 19 2 3 8 -3 13 -14 13 -11
0 -19 -1 -19 -2z"/>
<path d="M3350 3746 c0 -2 7 -7 16 -10 8 -3 12 -2 9 4 -6 10 -25 14 -25 6z"/>
<path d="M3950 3740 c0 -5 5 -10 10 -10 6 0 10 5 10 10 0 6 -4 10 -10 10 -5 0
-10 -4 -10 -10z"/>
<path d="M4027 3733 c3 -7 6 -13 8 -13 1 0 7 6 13 13 8 10 6 13 -7 13 -11 0
-17 -6 -14 -13z"/>
<path d="M453 3726 c0 -8 5 -12 10 -9 7 4 8 -1 3 -13 -6 -15 -5 -17 5 -6 11
10 10 15 -2 28 -14 13 -16 13 -16 0z"/>
<path d="M853 3725 c0 -8 5 -11 10 -8 6 4 8 0 4 -10 -9 -25 0 -21 14 6 6 12 8
19 4 15 -5 -4 -13 -3 -20 2 -8 7 -12 5 -12 -5z"/>
<path d="M2170 3725 c-11 -13 -11 -18 0 -28 10 -9 11 -9 6 1 -4 7 -2 19 4 27
7 8 10 15 7 15 -2 0 -10 -7 -17 -15z"/>
<path d="M4125 3720 c21 -24 26 -25 19 -6 -3 8 -13 17 -22 21 -13 5 -13 2 3
-15z"/>
<path d="M2513 3715 c0 -8 4 -12 9 -9 5 3 6 10 3 15 -9 13 -12 11 -12 -6z"/>
<path d="M3340 3726 c0 -2 8 -10 18 -17 15 -13 16 -12 3 4 -13 16 -21 21 -21
13z"/>
<path d="M3952 3707 c-8 -10 -6 -13 7 -13 11 0 17 6 14 13 -3 7 -6 13 -8 13
-1 0 -7 -6 -13 -13z"/>
<path d="M510 3700 c0 -5 5 -10 10 -10 6 0 10 5 10 10 0 6 -4 10 -10 10 -5 0
-10 -4 -10 -10z"/>
<path d="M3319 3693 c-13 -16 -12 -17 4 -4 9 7 17 15 17 17 0 8 -8 3 -21 -13z"/>
<path d="M3830 3706 c0 -2 7 -7 16 -10 8 -3 12 -2 9 4 -6 10 -25 14 -25 6z"/>
<path d="M4000 3700 c-9 -6 -10 -10 -3 -10 6 0 15 5 18 10 8 12 4 12 -15 0z"/>
<path d="M4035 3700 c3 -5 8 -10 11 -10 2 0 4 5 4 10 0 6 -5 10 -11 10 -5 0
-7 -4 -4 -10z"/>
<path d="M410 3682 c0 -4 10 -9 22 -9 18 -2 20 0 8 7 -18 12 -30 13 -30 2z"/>
<path d="M814 3678 c-4 -7 -4 -10 1 -6 4 4 15 2 24 -5 14 -11 14 -10 2 6 -16
20 -18 21 -27 5z"/>
<path d="M2200 3680 c-9 -6 -10 -10 -3 -10 6 0 15 5 18 10 8 12 4 12 -15 0z"/>
<path d="M2500 3675 c-11 -13 -10 -14 4 -9 9 3 16 10 16 15 0 13 -6 11 -20 -6z"/>
<path d="M4826 3682 c-3 -5 1 -9 9 -9 8 0 12 4 9 9 -3 4 -7 8 -9 8 -2 0 -6 -4
-9 -8z"/>
<path d="M1560 3671 c0 -6 4 -13 10 -16 6 -3 7 1 4 9 -7 18 -14 21 -14 7z"/>
<path d="M476 3662 c-3 -4 4 -9 15 -9 23 -2 25 3 4 10 -8 4 -16 3 -19 -1z"/>
<path d="M1626 3657 c3 -10 9 -15 12 -12 3 3 0 11 -7 18 -10 9 -11 8 -5 -6z"/>
<path d="M3870 3654 c6 -6 7 -14 3 -17 -3 -4 -2 -7 4 -7 6 0 13 8 15 18 4 12
-1 18 -13 18 -12 0 -15 -4 -9 -12z"/>
<path d="M416 3647 c3 -10 9 -15 12 -12 3 3 0 11 -7 18 -10 9 -11 8 -5 -6z"/>
<path d="M3251 3644 c0 -11 3 -14 6 -6 3 7 2 16 -1 19 -3 4 -6 -2 -5 -13z"/>
<path d="M4855 3649 c-4 -6 -5 -12 -2 -15 2 -3 7 2 10 11 7 17 1 20 -8 4z"/>
<path d="M451 3634 c0 -11 3 -14 6 -6 3 7 2 16 -1 19 -3 4 -6 -2 -5 -13z"/>
<path d="M2217 3639 c7 -7 15 -10 18 -7 3 3 -2 9 -12 12 -14 6 -15 5 -6 -5z"/>
<path d="M3310 3640 c0 -4 7 -7 15 -6 23 3 26 12 5 13 -11 1 -20 -2 -20 -7z"/>
<path d="M1588 3611 c3 -8 1 -12 -5 -8 -5 3 -10 -1 -10 -9 0 -11 6 -9 24 8 28
26 27 24 4 24 -12 0 -17 -5 -13 -15z"/>
<path d="M3276 3618 c3 -5 10 -6 15 -3 13 9 11 12 -6 12 -8 0 -12 -4 -9 -9z"/>
<path d="M420 3611 c0 -6 -10 -8 -21 -6 -12 3 -19 1 -15 -2 13 -14 54 -10 49
4 -6 15 -13 17 -13 4z"/>
<path d="M795 3609 c-4 -6 -5 -12 -2 -15 2 -3 7 2 10 11 7 17 1 20 -8 4z"/>
<path d="M3275 3590 c21 -24 26 -25 19 -6 -3 8 -13 17 -22 21 -13 5 -13 2 3
-15z"/>
<path d="M4876 3595 c-9 -26 -7 -32 5 -12 6 10 9 21 6 23 -2 3 -7 -2 -11 -11z"/>
<path d="M3866 3583 c-6 -14 -5 -15 5 -6 7 7 10 15 7 18 -3 3 -9 -2 -12 -12z"/>
<path d="M3225 3582 c13 -9 13 -62 0 -82 -7 -12 -6 -13 7 -3 8 7 14 25 13 40
-1 16 2 33 6 38 5 7 0 11 -14 12 -12 1 -17 -1 -12 -5z"/>
<path d="M413 3563 c1 -17 4 -19 14 -11 15 12 18 22 4 14 -5 -4 -11 0 -14 6
-3 7 -4 3 -4 -9z"/>
<path d="M1596 3567 c3 -10 9 -15 12 -12 3 3 0 11 -7 18 -10 9 -11 8 -5 -6z"/>
<path d="M4893 3567 c0 -8 6 -14 14 -14 9 0 10 4 2 14 -6 7 -12 13 -14 13 -1
0 -2 -6 -2 -13z"/>
<path d="M364 3559 c-4 -7 -3 -9 4 -5 5 3 13 0 15 -6 4 -9 6 -10 6 -1 1 17
-16 25 -25 12z"/>
<path d="M3170 3546 c0 -2 7 -7 16 -10 8 -3 12 -2 9 4 -6 10 -25 14 -25 6z"/>
<path d="M380 3491 c0 -7 -5 -9 -12 -5 -7 5 -8 3 -3 -5 5 -9 10 -10 18 -2 6 6
8 14 4 18 -4 3 -7 1 -7 -6z"/>
<path d="M3843 3481 c-22 -18 -22 -19 -3 -24 11 -3 17 -1 14 4 -3 6 0 16 6 24
17 20 10 18 -17 -4z"/>
<path d="M1579 3473 c-13 -16 -12 -17 4 -4 9 7 17 15 17 17 0 8 -8 3 -21 -13z"/>
<path d="M3194 3481 c4 -5 1 -12 -4 -14 -6 -3 -5 -4 2 -3 15 3 23 26 8 26 -6
0 -9 -4 -6 -9z"/>
<path d="M4930 3486 c0 -2 7 -7 16 -10 8 -3 12 -2 9 4 -6 10 -25 14 -25 6z"/>
<path d="M3873 3465 c0 -8 4 -12 9 -9 5 3 6 10 3 15 -9 13 -12 11 -12 -6z"/>
<path d="M1494 3459 c-3 -6 -2 -15 4 -21 6 -6 12 -6 17 3 6 8 4 10 -5 4 -10
-6 -12 -4 -7 8 7 19 2 23 -9 6z"/>
<path d="M1535 3449 c-4 -6 -5 -12 -2 -15 2 -3 7 2 10 11 7 17 1 20 -8 4z"/>
<path d="M355 3440 c-3 -5 -1 -10 4 -10 6 0 11 5 11 10 0 6 -2 10 -4 10 -3 0
-8 -4 -11 -10z"/>
<path d="M3200 3420 c-9 -6 -10 -10 -3 -10 6 0 15 5 18 10 8 12 4 12 -15 0z"/>
<path d="M1534 3399 c0 -13 3 -15 13 -7 7 6 13 12 13 13 0 2 -6 5 -13 8 -7 3
-13 -3 -13 -14z"/>
<path d="M295 3400 c-2 -3 5 -6 15 -7 11 -1 22 2 24 5 3 4 -4 8 -15 8 -11 0
-22 -3 -24 -6z"/>
<path d="M3155 3400 c3 -5 8 -10 11 -10 2 0 4 5 4 10 0 6 -5 10 -11 10 -5 0
-7 -4 -4 -10z"/>
<path d="M353 3385 c0 -8 4 -12 9 -9 5 3 6 10 3 15 -9 13 -12 11 -12 -6z"/>
<path d="M285 3360 c-3 -6 1 -7 9 -4 18 7 21 14 7 14 -6 0 -13 -4 -16 -10z"/>
<path d="M3877 3356 c-4 -10 -1 -13 8 -9 8 3 12 9 9 14 -7 12 -11 11 -17 -5z"/>
<path d="M4964 3359 c-4 -7 -3 -9 4 -5 5 3 13 0 15 -6 4 -9 6 -10 6 -1 1 17
-16 25 -25 12z"/>
<path d="M1454 3321 c0 -11 5 -17 13 -14 10 4 11 9 2 19 -15 18 -15 18 -15 -5z"/>
<path d="M307 3319 c7 -7 15 -10 18 -7 3 3 -2 9 -12 12 -14 6 -15 5 -6 -5z"/>
<path d="M1490 3320 c0 -5 5 -10 10 -10 6 0 10 5 10 10 0 6 -4 10 -10 10 -5 0
-10 -4 -10 -10z"/>
<path d="M3070 3320 c0 -5 5 -10 11 -10 5 0 7 5 4 10 -3 6 -8 10 -11 10 -2 0
-4 -4 -4 -10z"/>
<path d="M275 3311 c-6 -11 13 -26 22 -17 4 3 1 6 -6 6 -7 0 -9 5 -6 10 3 6 4
10 1 10 -3 0 -7 -4 -11 -9z"/>
<path d="M3095 3281 c-3 -5 -2 -12 3 -15 5 -3 9 1 9 9 0 17 -3 19 -12 6z"/>
<path d="M4987 3279 c7 -7 15 -10 18 -7 3 3 -2 9 -12 12 -14 6 -15 5 -6 -5z"/>
<path d="M260 3264 c0 -1 6 -7 14 -13 10 -9 15 -8 19 2 3 8 -3 13 -14 13 -11
0 -19 -1 -19 -2z"/>
<path d="M1454 3239 c0 -13 3 -15 13 -7 7 6 13 12 13 13 0 2 -6 5 -13 8 -7 3
-13 -3 -13 -14z"/>
<path d="M315 3240 c3 -5 8 -10 11 -10 2 0 4 5 4 10 0 6 -5 10 -11 10 -5 0 -7
-4 -4 -10z"/>
<path d="M3080 3240 c-9 -6 -10 -10 -3 -10 6 0 15 5 18 10 8 12 4 12 -15 0z"/>
<path d="M1390 3211 c-8 -15 -7 -19 5 -17 8 1 21 8 28 16 9 11 8 11 -7 0 -18
-14 -19 -13 -13 3 9 23 0 22 -13 -2z"/>
<path d="M3013 3203 c1 -21 2 -21 19 -6 21 19 24 31 4 14 -11 -9 -15 -9 -19 1
-3 7 -4 3 -4 -9z"/>
<path d="M4231 3207 c-8 -10 -7 -14 2 -14 8 0 14 6 14 14 0 7 -1 13 -2 13 -2
0 -8 -6 -14 -13z"/>
<path d="M271 3192 c-7 -14 -6 -19 4 -19 8 0 11 7 7 16 -5 14 -4 14 14 1 18
-14 18 -14 5 3 -17 21 -18 21 -30 -1z"/>
<path d="M1436 3202 c-3 -5 1 -9 9 -9 8 0 12 4 9 9 -3 4 -7 8 -9 8 -2 0 -6 -4
-9 -8z"/>
<path d="M2976 3202 c-3 -5 1 -9 9 -9 8 0 12 4 9 9 -3 4 -7 8 -9 8 -2 0 -6 -4
-9 -8z"/>
<path d="M5014 3198 c-4 -5 -3 -12 0 -15 3 -4 6 -1 6 6 0 7 4 10 9 6 5 -3 12
-2 15 3 3 5 -2 9 -10 9 -8 0 -17 -4 -20 -9z"/>
<path d="M1428 3173 c7 -3 16 -2 19 1 4 3 -2 6 -13 5 -11 0 -14 -3 -6 -6z"/>
<path d="M2972 3170 c4 -14 55 -23 63 -10 2 4 -8 6 -23 5 -15 -1 -31 3 -35 9
-6 7 -7 6 -5 -4z"/>
<path d="M5035 3170 c-3 -6 1 -7 9 -4 18 7 21 14 7 14 -6 0 -13 -4 -16 -10z"/>
<path d="M313 3149 c-2 -23 3 -25 10 -4 4 8 3 16 -1 19 -4 3 -9 -4 -9 -15z"/>
<path d="M1377 3156 c-4 -10 -1 -13 8 -9 8 3 12 9 9 14 -7 12 -11 11 -17 -5z"/>
<path d="M1459 3153 c-13 -16 -12 -17 4 -4 9 7 17 15 17 17 0 8 -8 3 -21 -13z"/>
<path d="M2950 3141 c0 -6 4 -12 8 -15 5 -3 9 1 9 9 0 8 -4 15 -9 15 -4 0 -8
-4 -8 -9z"/>
<path d="M4181 3124 c0 -11 3 -14 6 -6 3 7 2 16 -1 19 -3 4 -6 -2 -5 -13z"/>
<path d="M1350 3124 c0 -2 9 -8 20 -14 15 -8 18 -8 14 3 -4 11 -34 21 -34 11z"/>
<path d="M2873 3116 c-3 -6 -3 -8 2 -4 4 4 13 3 20 -2 8 -7 12 -5 12 3 0 16
-25 18 -34 3z"/>
<path d="M2850 3101 c0 -6 4 -13 10 -16 6 -3 7 1 4 9 -7 18 -14 21 -14 7z"/>
<path d="M2917 3095 c-4 -8 -3 -16 1 -19 4 -3 9 4 9 15 2 23 -3 25 -10 4z"/>
<path d="M4145 3100 c-3 -6 1 -7 9 -4 18 7 21 14 7 14 -6 0 -13 -4 -16 -10z"/>
<path d="M5000 3100 c-12 -7 -12 -11 -2 -20 6 -5 10 -7 7 -4 -3 4 0 13 6 21
13 15 10 16 -11 3z"/>
<path d="M1413 3087 c0 -8 6 -14 14 -14 9 0 10 4 2 14 -6 7 -12 13 -14 13 -1
0 -2 -6 -2 -13z"/>
<path d="M274 3051 c13 -12 18 -13 28 -2 11 10 9 11 -6 5 -12 -5 -17 -4 -13 3
3 5 -1 10 -9 10 -13 0 -13 -2 0 -16z"/>
<path d="M2833 3063 c4 -3 -1 -16 -10 -27 -17 -20 -17 -20 1 -6 18 13 19 13
14 -1 -4 -9 -1 -16 7 -16 9 0 11 6 6 16 -5 9 -6 22 -4 29 3 6 -1 12 -8 12 -7
0 -9 -3 -6 -7z"/>
<path d="M4160 3060 c-9 -6 -10 -10 -3 -10 6 0 15 5 18 10 8 12 4 12 -15 0z"/>
<path d="M253 3035 c0 -8 4 -12 9 -9 5 3 6 10 3 15 -9 13 -12 11 -12 -6z"/>
<path d="M1370 3038 c0 -6 3 -8 7 -5 3 4 13 1 22 -6 14 -11 14 -10 2 6 -15 20
-31 22 -31 5z"/>
<path d="M4131 3034 c0 -11 3 -14 6 -6 3 7 2 16 -1 19 -3 4 -6 -2 -5 -13z"/>
<path d="M4166 3041 c-19 -7 -19 -8 0 -13 13 -3 21 0 21 8 0 8 -1 14 -1 13 -1
0 -10 -4 -20 -8z"/>
<path d="M1315 3021 c-3 -5 0 -13 6 -17 7 -4 9 -3 5 4 -3 5 0 13 6 15 9 4 10
6 1 6 -6 1 -14 -3 -18 -8z"/>
<path d="M1355 3023 c3 -3 0 -11 -5 -18 -7 -8 -5 -12 4 -12 14 0 16 22 3 32
-4 3 -5 2 -2 -2z"/>
<path d="M4999 3020 c-3 -20 -4 -25 -11 -35 -4 -6 2 -11 12 -11 13 0 16 5 11
16 -5 8 -6 21 -4 28 3 6 2 12 -1 12 -3 0 -7 -4 -7 -10z"/>
<path d="M2771 3006 c-9 -10 -8 -15 2 -19 8 -3 13 3 13 14 0 23 0 23 -15 5z"/>
<path d="M4095 3011 c-3 -5 -2 -12 3 -15 5 -3 9 1 9 9 0 17 -3 19 -12 6z"/>
<path d="M4130 3001 c0 -6 4 -13 10 -16 6 -3 7 1 4 9 -7 18 -14 21 -14 7z"/>
<path d="M4176 2993 c-6 -14 -5 -15 5 -6 7 7 10 15 7 18 -3 3 -9 -2 -12 -12z"/>
<path d="M1315 2960 c3 -5 8 -10 11 -10 2 0 4 5 4 10 0 6 -5 10 -11 10 -5 0
-7 -4 -4 -10z"/>
<path d="M2685 2960 c-3 -6 1 -7 9 -4 18 7 21 14 7 14 -6 0 -13 -4 -16 -10z"/>
<path d="M2755 2961 c-3 -5 -2 -12 3 -15 5 -3 9 1 9 9 0 17 -3 19 -12 6z"/>
<path d="M280 2940 c-9 -6 -10 -10 -3 -10 6 0 15 5 18 10 8 12 4 12 -15 0z"/>
<path d="M2613 2935 c-3 -9 -3 -18 -1 -21 3 -3 8 4 11 16 6 23 -1 27 -10 5z"/>
<path d="M4107 2933 c3 -7 6 -13 8 -13 1 0 7 6 13 13 8 10 6 13 -7 13 -11 0
-17 -6 -14 -13z"/>
<path d="M4999 2948 c-5 -14 -4 -60 2 -70 4 -7 7 3 5 22 -2 19 2 38 8 42 8 5
7 8 -1 8 -7 0 -13 -1 -14 -2z"/>
<path d="M5033 2935 c0 -8 4 -12 9 -9 5 3 6 10 3 15 -9 13 -12 11 -12 -6z"/>
<path d="M1260 2936 c0 -2 7 -7 16 -10 8 -3 12 -2 9 4 -6 10 -25 14 -25 6z"/>
<path d="M1340 2929 c0 -5 -6 -7 -12 -3 -10 6 -10 5 -1 -8 7 -8 11 -18 8 -21
-3 -4 -2 -5 2 -2 8 7 15 45 8 45 -3 0 -5 -5 -5 -11z"/>
<path d="M2661 2924 c0 -11 3 -14 6 -6 3 7 2 16 -1 19 -3 4 -6 -2 -5 -13z"/>
<path d="M2726 2925 c-18 -14 -18 -14 1 -12 11 0 20 7 20 14 0 7 -1 13 -1 13
-1 0 -9 -7 -20 -15z"/>
<path d="M313 2911 c0 -11 5 -18 9 -15 4 3 5 11 1 19 -7 21 -12 19 -10 -4z"/>
<path d="M4070 2919 c0 -5 5 -7 10 -4 6 3 10 8 10 11 0 2 -4 4 -10 4 -5 0 -10
-5 -10 -11z"/>
<path d="M1245 2899 c-4 -6 -5 -12 -2 -15 2 -3 7 2 10 11 7 17 1 20 -8 4z"/>
<path d="M1281 2889 c5 -10 15 -21 22 -25 8 -6 8 -3 -1 9 -8 9 -11 20 -8 25 3
5 -1 9 -9 9 -10 0 -11 -5 -4 -18z"/>
<path d="M4113 2888 c-2 -18 0 -20 7 -8 12 18 13 30 2 30 -4 0 -9 -10 -9 -22z"/>
<path d="M2539 2873 c-13 -16 -12 -17 4 -4 16 13 21 21 13 21 -2 0 -10 -8 -17
-17z"/>
<path d="M4053 2875 c0 -8 4 -12 9 -9 4 3 8 9 8 15 0 5 -4 9 -8 9 -5 0 -9 -7
-9 -15z"/>
<path d="M4950 2876 c0 -8 4 -17 9 -20 5 -4 7 3 4 14 -6 23 -13 26 -13 6z"/>
<path d="M2210 2871 c0 -6 4 -13 10 -16 6 -3 7 1 4 9 -7 18 -14 21 -14 7z"/>
<path d="M4077 2867 c-3 -8 1 -14 8 -14 7 0 11 6 8 14 -3 7 -6 13 -8 13 -2 0
-5 -6 -8 -13z"/>
<path d="M1232 2842 c-8 -24 -7 -28 9 -28 12 0 15 4 8 12 -5 6 -7 19 -3 28 3
9 4 16 1 16 -3 0 -9 -13 -15 -28z"/>
<path d="M2586 2858 c3 -4 11 -5 19 -1 21 7 19 12 -4 10 -11 0 -18 -5 -15 -9z"/>
<path d="M2501 2853 c-1 -17 16 -25 25 -12 4 7 3 9 -4 5 -5 -3 -13 0 -15 6 -4
9 -6 10 -6 1z"/>
<path d="M2270 2846 c0 -2 7 -7 16 -10 8 -3 12 -2 9 4 -6 10 -25 14 -25 6z"/>
<path d="M1260 2800 c-8 -5 -10 -10 -5 -10 6 0 17 5 25 10 8 5 11 10 5 10 -5
0 -17 -5 -25 -10z"/>
<path d="M4038 2798 c-9 -5 -6 -7 9 -5 12 2 25 6 28 8 8 9 -23 6 -37 -3z"/>
<path d="M4931 2794 c0 -11 3 -14 6 -6 3 7 2 16 -1 19 -3 4 -6 -2 -5 -13z"/>
<path d="M1204 2779 c-3 -6 0 -17 8 -25 13 -13 15 -13 15 0 0 8 -5 12 -10 9
-6 -4 -8 0 -4 10 7 19 2 23 -9 6z"/>
<path d="M2519 2788 c-5 -11 -4 -80 1 -83 3 -2 6 16 6 41 0 38 -3 52 -7 42z"/>
<path d="M4987 2773 c3 -7 6 -13 8 -13 1 0 7 6 13 13 8 10 6 13 -7 13 -11 0
-17 -6 -14 -13z"/>
<path d="M4073 2765 c0 -8 4 -15 9 -15 4 0 8 4 8 9 0 6 -4 12 -8 15 -5 3 -9
-1 -9 -9z"/>
<path d="M1170 2760 c0 -5 5 -10 10 -10 6 0 10 5 10 10 0 6 -4 10 -10 10 -5 0
-10 -4 -10 -10z"/>
<path d="M2545 2760 c-3 -6 1 -7 9 -4 18 7 21 14 7 14 -6 0 -13 -4 -16 -10z"/>
<path d="M3830 2730 c0 -5 5 -10 11 -10 5 0 7 5 4 10 -3 6 -8 10 -11 10 -2 0
-4 -4 -4 -10z"/>
<path d="M4020 2731 c0 -4 -11 -7 -24 -6 -13 2 -29 -1 -36 -5 -8 -5 3 -7 25
-6 22 2 41 8 43 14 2 7 1 12 -2 12 -3 0 -6 -4 -6 -9z"/>
<path d="M2491 2714 c0 -11 3 -14 6 -6 3 7 2 16 -1 19 -3 4 -6 -2 -5 -13z"/>
<path d="M3860 2726 c0 -2 8 -10 18 -17 15 -13 16 -12 3 4 -13 16 -21 21 -21
13z"/>
<path d="M3910 2726 c0 -2 7 -7 16 -10 8 -3 12 -2 9 4 -6 10 -25 14 -25 6z"/>
<path d="M3907 2699 c7 -7 15 -10 18 -7 3 3 -2 9 -12 12 -14 6 -15 5 -6 -5z"/>
<path d="M4893 2695 c-4 -5 -3 -7 2 -3 4 4 14 3 20 -2 9 -7 14 -7 18 3 6 15
-32 18 -40 2z"/>
<path d="M4953 2695 c0 -8 4 -12 9 -9 4 3 8 9 8 15 0 5 -4 9 -8 9 -5 0 -9 -7
-9 -15z"/>
<path d="M1171 2691 c-8 -5 -22 -8 -32 -6 -10 2 -21 0 -23 -4 -3 -4 7 -7 22
-6 15 1 32 -2 37 -6 7 -5 11 0 11 12 0 10 0 19 -1 19 0 0 -6 -4 -14 -9z"/>
<path d="M2474 2666 c4 -20 1 -26 -8 -23 -7 3 -13 -1 -13 -8 0 -10 5 -11 17
-5 11 6 22 5 30 -3 11 -9 11 -8 0 7 -8 10 -15 25 -16 33 -2 8 -5 18 -9 21 -3
4 -4 -6 -1 -22z"/>
<path d="M2516 2678 c3 -5 10 -6 15 -3 13 9 11 12 -6 12 -8 0 -12 -4 -9 -9z"/>
<path d="M4891 2651 c-8 -5 -9 -11 -3 -15 5 -3 12 1 16 9 6 17 6 18 -13 6z"/>
<path d="M1082 2638 c-15 -15 -15 -28 -1 -28 5 0 8 4 4 9 -3 6 3 14 12 20 10
6 13 11 8 11 -6 0 -16 -5 -23 -12z"/>
<path d="M4861 2634 c0 -11 3 -14 6 -6 3 7 2 16 -1 19 -3 4 -6 -2 -5 -13z"/>
<path d="M4829 2623 c-13 -16 -12 -17 4 -4 16 13 21 21 13 21 -2 0 -10 -8 -17
-17z"/>
<path d="M1131 2611 c-19 -12 -22 -38 -5 -38 10 0 11 4 5 10 -7 7 -5 15 7 23
19 15 14 18 -7 5z"/>
<path d="M4894 2600 c0 -10 5 -16 11 -12 5 4 16 7 23 8 8 2 17 6 20 10 4 4 0
4 -8 2 -8 -3 -22 -2 -30 3 -11 5 -16 2 -16 -11z"/>
<path d="M2496 2593 c-6 -14 -5 -15 5 -6 7 7 10 15 7 18 -3 3 -9 -2 -12 -12z"/>
<path d="M4835 2599 c-3 -4 2 -6 10 -5 21 3 28 13 10 13 -9 0 -18 -4 -20 -8z"/>
<path d="M1072 2587 c-8 -10 -6 -13 11 -14 12 0 16 1 9 4 -6 3 -10 9 -6 14 8
14 -2 11 -14 -4z"/>
<path d="M2440 2560 c-12 -7 -10 -9 8 -7 12 0 22 5 22 9 0 11 -12 10 -30 -2z"/>
<path d="M1026 2536 c5 -12 4 -17 -3 -13 -5 3 -10 -1 -10 -9 0 -13 2 -13 16 0
12 13 13 18 2 28 -10 11 -11 9 -5 -6z"/>
<path d="M2481 2532 c-7 -13 -6 -19 2 -19 7 0 13 9 13 19 0 10 -1 18 -3 18 -1
0 -7 -8 -12 -18z"/>
<path d="M4798 2533 c7 -3 16 -2 19 1 4 3 -2 6 -13 5 -11 0 -14 -3 -6 -6z"/>
<path d="M4750 2515 c5 -7 6 -16 2 -21 -4 -5 -3 -5 2 -1 15 12 15 34 0 34 -9
0 -11 -4 -4 -12z"/>
<path d="M3156 2507 c3 -10 9 -15 12 -12 3 3 0 11 -7 18 -10 9 -11 8 -5 -6z"/>
<path d="M4828 2503 c7 -3 16 -2 19 1 4 3 -2 6 -13 5 -11 0 -14 -3 -6 -6z"/>
<path d="M2451 2493 c-1 -17 16 -25 25 -12 4 7 3 9 -4 5 -5 -3 -13 0 -15 6 -4
9 -6 10 -6 1z"/>
<path d="M4787 2453 c3 -7 6 -13 8 -13 1 0 7 6 13 13 8 10 6 13 -7 13 -11 0
-17 -6 -14 -13z"/>
<path d="M2451 2451 c-9 -6 -10 -11 -2 -15 6 -4 8 -13 5 -19 -4 -7 -3 -9 1 -4
7 5 16 48 11 47 -1 0 -7 -4 -15 -9z"/>
<path d="M3180 2451 c0 -7 -5 -9 -12 -5 -7 5 -8 3 -3 -5 5 -9 10 -10 18 -2 6
6 8 14 4 18 -4 3 -7 1 -7 -6z"/>
<path d="M915 2441 c-3 -5 -2 -12 3 -15 5 -3 9 1 9 9 0 17 -3 19 -12 6z"/>
<path d="M4760 2440 c-9 -6 -10 -10 -3 -10 6 0 15 5 18 10 8 12 4 12 -15 0z"/>
<path d="M3199 2435 c-1 -3 -2 -8 -3 -12 -1 -5 -5 -15 -10 -23 -7 -12 -6 -13
4 -3 13 12 23 43 14 43 -2 0 -5 -2 -5 -5z"/>
<path d="M2387 2413 c3 -7 6 -13 8 -13 1 0 7 6 13 13 8 10 6 13 -7 13 -11 0
-17 -6 -14 -13z"/>
<path d="M4708 2423 c7 -3 16 -2 19 1 4 3 -2 6 -13 5 -11 0 -14 -3 -6 -6z"/>
<path d="M4735 2410 c-4 -6 -11 -7 -17 -4 -7 4 -8 2 -4 -5 6 -9 11 -9 22 0 14
11 18 19 10 19 -3 0 -8 -5 -11 -10z"/>
<path d="M2170 2401 c0 -6 4 -13 10 -16 6 -3 7 1 4 9 -7 18 -14 21 -14 7z"/>
<path d="M2417 2396 c-4 -11 -1 -13 10 -9 10 4 14 2 10 -4 -3 -5 0 -10 8 -10
13 0 12 4 -2 19 -19 22 -19 22 -26 4z"/>
<path d="M3181 2364 c0 -11 3 -14 6 -6 3 7 2 16 -1 19 -3 4 -6 -2 -5 -13z"/>
<path d="M2394 2346 c3 -16 8 -31 11 -35 3 -3 4 7 1 23 -3 16 -8 31 -11 35 -3
3 -4 -7 -1 -23z"/>
<path d="M1336 2347 c3 -10 9 -15 12 -12 3 3 0 11 -7 18 -10 9 -11 8 -5 -6z"/>
<path d="M3195 2309 c-4 -6 -5 -12 -2 -15 2 -3 7 2 10 11 7 17 1 20 -8 4z"/>
<path d="M2371 2286 c-9 -10 -8 -15 2 -19 8 -3 13 3 13 14 0 23 0 23 -15 5z"/>
<path d="M3214 2280 c0 -15 4 -16 18 -9 10 5 18 13 18 16 0 3 -3 3 -7 0 -3 -4
-11 -3 -17 3 -8 6 -12 3 -12 -10z"/>
<path d="M2335 2280 c-3 -5 -1 -10 4 -10 6 0 11 5 11 10 0 6 -2 10 -4 10 -3 0
-8 -4 -11 -10z"/>
<path d="M756 2261 c-3 -5 0 -14 8 -20 10 -9 15 -8 19 3 4 11 1 13 -10 9 -11
-4 -14 -2 -9 5 4 7 5 12 2 12 -3 0 -7 -4 -10 -9z"/>
<path d="M2374 2238 c-4 -5 -3 -12 0 -15 3 -4 6 -1 6 7 0 9 3 10 13 1 10 -8
14 -7 14 2 0 15 -25 18 -33 5z"/>
<path d="M3190 2236 c7 -7 13 -7 20 0 6 6 3 10 -10 10 -13 0 -16 -4 -10 -10z"/>
<path d="M715 2220 c6 -30 16 -40 12 -12 -2 12 -6 24 -10 28 -3 4 -4 -4 -2
-16z"/>
<path d="M786 2223 c-6 -14 -5 -15 5 -6 7 7 10 15 7 18 -3 3 -9 -2 -12 -12z"/>
<path d="M2341 2204 c0 -11 3 -14 6 -6 3 7 2 16 -1 19 -3 4 -6 -2 -5 -13z"/>
<path d="M1376 2198 c3 -5 10 -6 15 -3 13 9 11 12 -6 12 -8 0 -12 -4 -9 -9z"/>
<path d="M3214 2198 c-3 -5 -3 -12 0 -15 3 -4 6 -1 6 5 0 6 10 9 21 7 12 -3
19 -1 15 2 -11 11 -35 12 -42 1z"/>
<path d="M667 2179 c7 -9 10 -19 6 -22 -3 -4 -2 -7 4 -7 6 0 17 8 24 17 10 12
11 15 1 9 -7 -4 -20 -2 -30 6 -15 11 -15 11 -5 -3z"/>
<path d="M599 2168 c-1 -2 -2 -15 -3 -29 -2 -14 -5 -30 -9 -35 -3 -5 3 -10 13
-10 11 0 16 4 11 11 -4 5 -7 22 -6 38 2 22 -2 35 -6 25z"/>
<path d="M2350 2160 c0 -5 5 -10 10 -10 6 0 10 5 10 10 0 6 -4 10 -10 10 -5 0
-10 -4 -10 -10z"/>
<path d="M2315 2140 c-16 -7 -17 -9 -3 -9 9 -1 20 4 23 9 7 11 7 11 -20 0z"/>
<path d="M1381 2124 c0 -11 3 -14 6 -6 3 7 2 16 -1 19 -3 4 -6 -2 -5 -13z"/>
<path d="M2611 2126 c-9 -10 -8 -15 2 -19 8 -3 13 3 13 14 0 23 0 23 -15 5z"/>
<path d="M3214 2119 c0 -13 3 -15 13 -7 7 6 13 12 13 13 0 2 -6 5 -13 8 -7 3
-13 -3 -13 -14z"/>
<path d="M1348 2123 c7 -3 16 -2 19 1 4 3 -2 6 -13 5 -11 0 -14 -3 -6 -6z"/>
<path d="M2341 2114 c0 -11 3 -14 6 -6 3 7 2 16 -1 19 -3 4 -6 -2 -5 -13z"/>
<path d="M2710 2096 c7 -7 13 -7 20 0 6 6 3 10 -10 10 -13 0 -16 -4 -10 -10z"/>
<path d="M454 2081 c0 -13 6 -17 19 -13 10 2 16 5 15 6 -2 1 -10 7 -18 13 -13
10 -16 8 -16 -6z"/>
<path d="M3193 2085 c0 -8 4 -15 9 -15 4 0 8 4 8 9 0 6 -4 12 -8 15 -5 3 -9
-1 -9 -9z"/>
<path d="M1390 2080 c0 -5 5 -10 10 -10 6 0 10 5 10 10 0 6 -4 10 -10 10 -5 0
-10 -4 -10 -10z"/>
<path d="M2340 2086 c0 -2 8 -10 18 -17 15 -13 16 -12 3 4 -13 16 -21 21 -21
13z"/>
<path d="M2595 2080 c-3 -5 -1 -10 4 -10 6 0 11 5 11 10 0 6 -2 10 -4 10 -3 0
-8 -4 -11 -10z"/>
<path d="M4927 2079 c7 -7 15 -10 18 -7 3 3 -2 9 -12 12 -14 6 -15 5 -6 -5z"/>
<path d="M515 2061 c-3 -5 -2 -12 3 -15 5 -3 9 1 9 9 0 17 -3 19 -12 6z"/>
<path d="M540 2066 c0 -2 7 -7 16 -10 8 -3 12 -2 9 4 -6 10 -25 14 -25 6z"/>
<path d="M412 2051 c-11 -7 -11 -9 0 -14 9 -3 15 1 15 9 0 8 -1 14 -1 14 -1 0
-7 -4 -14 -9z"/>
<path d="M2335 2051 c-3 -6 -14 -8 -25 -6 -11 2 -22 0 -25 -5 -3 -4 3 -7 12
-6 10 2 24 -4 31 -13 8 -9 11 -10 7 -3 -4 7 -1 19 5 27 7 8 10 15 7 15 -3 0
-8 -4 -12 -9z"/>
<path d="M2569 2043 c-13 -16 -12 -17 4 -4 16 13 21 21 13 21 -2 0 -10 -8 -17
-17z"/>
<path d="M3236 2042 c-3 -5 1 -9 9 -9 8 0 12 4 9 9 -3 4 -7 8 -9 8 -2 0 -6 -4
-9 -8z"/>
<path d="M2535 2020 c-3 -5 -1 -10 4 -10 6 0 11 5 11 10 0 6 -2 10 -4 10 -3 0
-8 -4 -11 -10z"/>
<path d="M1337 1999 c4 -13 8 -18 11 -10 2 7 -1 18 -6 23 -8 8 -9 4 -5 -13z"/>
<path d="M1370 2010 c-8 -5 -12 -12 -9 -15 4 -3 12 1 19 10 14 17 11 19 -10 5z"/>
<path d="M3213 2003 c1 -12 5 -19 10 -16 4 2 16 -1 25 -9 15 -12 16 -11 4 4
-8 10 -10 23 -6 30 6 11 5 11 -8 0 -13 -10 -17 -10 -21 0 -3 7 -4 3 -4 -9z"/>
<path d="M430 2000 c0 -5 5 -10 10 -10 6 0 10 5 10 10 0 6 -4 10 -10 10 -5 0
-10 -4 -10 -10z"/>
<path d="M387 1987 c-3 -8 1 -14 8 -14 7 0 11 6 8 14 -3 7 -6 13 -8 13 -2 0
-5 -6 -8 -13z"/>
<path d="M4986 1977 c3 -10 9 -15 12 -12 3 3 0 11 -7 18 -10 9 -11 8 -5 -6z"/>
<path d="M1374 1961 c0 -11 5 -17 13 -14 10 4 11 9 2 19 -15 18 -15 18 -15 -5z"/>
<path d="M421 1954 c0 -11 3 -14 6 -6 3 7 2 16 -1 19 -3 4 -6 -2 -5 -13z"/>
<path d="M445 1960 c-3 -6 1 -7 9 -4 18 7 21 14 7 14 -6 0 -13 -4 -16 -10z"/>
<path d="M2550 1965 c0 -5 5 -17 10 -25 5 -8 10 -10 10 -5 0 6 -5 17 -10 25
-5 8 -10 11 -10 5z"/>
<path d="M3180 1966 c0 -2 8 -10 18 -17 15 -13 16 -12 3 4 -13 16 -21 21 -21
13z"/>
<path d="M2316 1947 c3 -10 9 -15 12 -12 3 3 0 11 -7 18 -10 9 -11 8 -5 -6z"/>
<path d="M396 1927 c3 -10 9 -15 12 -12 3 3 0 11 -7 18 -10 9 -11 8 -5 -6z"/>
<path d="M1356 1918 c3 -5 10 -6 15 -3 13 9 11 12 -6 12 -8 0 -12 -4 -9 -9z"/>
<path d="M2300 1906 c0 -2 8 -10 18 -17 15 -13 16 -12 3 4 -13 16 -21 21 -21
13z"/>
<path d="M380 1891 c0 -6 4 -13 10 -16 6 -3 7 1 4 9 -7 18 -14 21 -14 7z"/>
<path d="M2533 1885 c0 -8 5 -11 10 -8 6 4 8 0 5 -9 -4 -8 -1 -15 6 -15 6 0
12 8 12 18 0 10 -2 16 -5 14 -2 -3 -9 0 -16 5 -8 7 -12 5 -12 -5z"/>
<path d="M3221 1897 c2 -1 13 -9 24 -17 19 -14 19 -14 6 3 -7 9 -18 17 -24 17
-6 0 -8 -1 -6 -3z"/>
<path d="M414 1878 c-4 -5 -3 -12 0 -15 3 -4 6 -1 6 7 0 9 3 10 13 1 10 -8 14
-7 14 2 0 15 -25 18 -33 5z"/>
<path d="M930 1880 c0 -5 5 -10 10 -10 6 0 10 5 10 10 0 6 -4 10 -10 10 -5 0
-10 -4 -10 -10z"/>
<path d="M1311 1874 c7 -8 6 -14 -3 -17 -7 -3 -3 -4 9 -4 15 1 19 5 13 13 -6
6 -8 13 -5 16 3 2 -2 5 -10 5 -10 0 -12 -4 -4 -13z"/>
<path d="M2348 1863 c7 -3 16 -2 19 1 4 3 -2 6 -13 5 -11 0 -14 -3 -6 -6z"/>
<path d="M3226 1857 c3 -10 9 -15 12 -12 3 3 0 11 -7 18 -10 9 -11 8 -5 -6z"/>
<path d="M5040 1860 c-9 -6 -10 -10 -3 -10 6 0 15 5 18 10 8 12 4 12 -15 0z"/>
<path d="M851 1851 c-8 -5 -9 -11 -3 -15 5 -3 12 1 16 9 6 17 6 18 -13 6z"/>
<path d="M373 1835 c0 -7 6 -11 14 -8 7 3 13 6 13 8 0 2 -6 5 -13 8 -8 3 -14
-1 -14 -8z"/>
<path d="M410 1841 c0 -6 4 -13 10 -16 6 -3 7 1 4 9 -7 18 -14 21 -14 7z"/>
<path d="M970 1840 c0 -5 5 -10 10 -10 6 0 10 5 10 10 0 6 -4 10 -10 10 -5 0
-10 -4 -10 -10z"/>
<path d="M1345 1840 c-3 -6 1 -7 9 -4 18 7 21 14 7 14 -6 0 -13 -4 -16 -10z"/>
<path d="M2339 1833 c-13 -16 -12 -17 4 -4 9 7 17 15 17 17 0 8 -8 3 -21 -13z"/>
<path d="M5040 1829 c0 -5 -4 -7 -10 -4 -6 4 -7 -1 -3 -11 4 -11 8 -13 11 -6
2 7 8 10 13 7 5 -4 6 1 3 9 -7 18 -14 21 -14 5z"/>
<path d="M2356 1813 c-6 -14 -5 -15 5 -6 7 7 10 15 7 18 -3 3 -9 -2 -12 -12z"/>
<path d="M3230 1819 c0 -5 5 -7 10 -4 6 3 10 8 10 11 0 2 -4 4 -10 4 -5 0 -10
-5 -10 -11z"/>
<path d="M851 1804 c0 -11 3 -14 6 -6 3 7 2 16 -1 19 -3 4 -6 -2 -5 -13z"/>
<path d="M3171 1804 c0 -11 3 -14 6 -6 3 7 2 16 -1 19 -3 4 -6 -2 -5 -13z"/>
<path d="M785 1800 c-3 -6 1 -7 9 -4 18 7 21 14 7 14 -6 0 -13 -4 -16 -10z"/>
<path d="M1301 1794 c0 -11 3 -14 6 -6 3 7 2 16 -1 19 -3 4 -6 -2 -5 -13z"/>
<path d="M3229 1783 c-13 -16 -12 -17 4 -4 9 7 17 15 17 17 0 8 -8 3 -21 -13z"/>
<path d="M774 1760 c0 -13 4 -16 12 -10 6 6 13 7 16 4 3 -3 9 1 14 8 4 7 4 10
-1 6 -4 -4 -15 -3 -24 2 -13 6 -17 4 -17 -10z"/>
<path d="M2375 1769 c-4 -6 -5 -12 -2 -15 2 -3 7 2 10 11 7 17 1 20 -8 4z"/>
<path d="M371 1767 c2 -1 13 -9 24 -17 19 -14 19 -14 6 3 -7 9 -18 17 -24 17
-6 0 -8 -1 -6 -3z"/>
<path d="M830 1766 c0 -2 7 -7 16 -10 8 -3 12 -2 9 4 -6 10 -25 14 -25 6z"/>
<path d="M5067 1747 c-3 -8 1 -14 8 -14 7 0 11 6 8 14 -3 7 -6 13 -8 13 -2 0
-5 -6 -8 -13z"/>
<path d="M826 1737 c3 -10 9 -15 12 -12 3 3 0 11 -7 18 -10 9 -11 8 -5 -6z"/>
<path d="M1317 1737 c-3 -9 -17 -14 -36 -12 -17 1 -31 -1 -31 -5 0 -12 58 -6
72 8 6 6 9 14 6 17 -3 3 -8 -1 -11 -8z"/>
<path d="M753 1725 c0 -8 4 -12 9 -9 5 3 6 10 3 15 -9 13 -12 11 -12 -6z"/>
<path d="M387 1699 c7 -7 15 -10 18 -7 3 3 -2 9 -12 12 -14 6 -15 5 -6 -5z"/>
<path d="M1319 1708 c-6 -16 -4 -56 3 -52 4 3 6 9 3 14 -3 4 1 11 7 13 10 4
10 6 0 6 -7 1 -10 6 -7 11 3 6 4 10 1 10 -3 0 -6 -1 -7 -2z"/>
<path d="M3196 1698 c5 -7 2 -9 -8 -6 -8 4 -15 0 -15 -7 0 -10 5 -11 19 -4 20
11 24 29 7 29 -5 0 -7 -5 -3 -12z"/>
<path d="M5086 1702 c-3 -5 1 -9 9 -9 8 0 12 4 9 9 -3 4 -7 8 -9 8 -2 0 -6 -4
-9 -8z"/>
<path d="M3216 1673 c-6 -14 -5 -15 5 -6 7 7 10 15 7 18 -3 3 -9 -2 -12 -12z"/>
<path d="M2395 1671 c-3 -5 0 -13 6 -17 7 -4 9 -3 5 4 -3 5 0 13 6 15 9 4 10
6 1 6 -6 1 -14 -3 -18 -8z"/>
<path d="M1253 1646 c0 -9 7 -12 16 -8 13 5 14 3 4 -9 -10 -13 -10 -16 1 -16
18 0 14 27 -6 38 -10 5 -15 4 -15 -5z"/>
<path d="M416 1638 c3 -4 11 -5 19 -1 21 7 19 12 -4 10 -11 0 -18 -5 -15 -9z"/>
<path d="M3155 1640 c3 -5 8 -10 11 -10 2 0 4 5 4 10 0 6 -5 10 -11 10 -5 0
-7 -4 -4 -10z"/>
<path d="M753 1625 c0 -8 4 -12 9 -9 5 3 6 10 3 15 -9 13 -12 11 -12 -6z"/>
<path d="M1306 1623 c-6 -14 -5 -15 5 -6 7 7 10 15 7 18 -3 3 -9 -2 -12 -12z"/>
<path d="M3193 1611 c10 -12 9 -14 -4 -9 -9 4 -16 1 -16 -8 0 -9 5 -10 15 -5
20 11 24 38 6 38 -11 0 -11 -3 -1 -16z"/>
<path d="M733 1591 c0 -11 5 -18 9 -15 4 3 5 11 1 19 -7 21 -12 19 -10 -4z"/>
<path d="M3120 1606 c0 -2 8 -10 18 -17 15 -13 16 -12 3 4 -13 16 -21 21 -21
13z"/>
<path d="M5059 1593 c-13 -16 -12 -17 4 -4 9 7 17 15 17 17 0 8 -8 3 -21 -13z"/>
<path d="M430 1596 c0 -2 8 -10 18 -17 15 -13 16 -12 3 4 -13 16 -21 21 -21
13z"/>
<path d="M1235 1581 c-3 -5 -2 -12 3 -15 5 -3 9 1 9 9 0 17 -3 19 -12 6z"/>
<path d="M1268 1583 c7 -3 16 -2 19 1 4 3 -2 6 -13 5 -11 0 -14 -3 -6 -6z"/>
<path d="M414 1569 c1 -7 10 -13 19 -15 9 -1 15 2 11 7 -3 5 -9 7 -14 4 -4 -3
-11 0 -13 5 -3 6 -4 5 -3 -1z"/>
<path d="M3156 1558 c3 -5 10 -6 15 -3 13 9 11 12 -6 12 -8 0 -12 -4 -9 -9z"/>
<path d="M707 1539 c7 -7 15 -10 18 -7 3 3 -2 9 -12 12 -14 6 -15 5 -6 -5z"/>
<path d="M3106 1535 c4 -8 11 -15 16 -15 6 0 5 6 -2 15 -7 8 -14 15 -16 15 -2
0 -1 -7 2 -15z"/>
<path d="M1206 1527 c-16 -12 -16 -14 -3 -14 9 0 18 6 21 14 3 7 4 13 3 13 -2
0 -11 -6 -21 -13z"/>
<path d="M5074 1520 c0 -13 4 -16 10 -10 7 7 7 13 0 20 -6 6 -10 3 -10 -10z"/>
<path d="M440 1520 c-8 -5 -10 -10 -5 -10 6 0 17 5 25 10 8 5 11 10 5 10 -5 0
-17 -5 -25 -10z"/>
<path d="M1235 1521 c-3 -5 -2 -12 3 -15 5 -3 9 1 9 9 0 17 -3 19 -12 6z"/>
<path d="M707 1507 c-3 -8 1 -14 8 -14 7 0 11 6 8 14 -3 7 -6 13 -8 13 -2 0
-5 -6 -8 -13z"/>
<path d="M3105 1500 c-3 -6 1 -7 9 -4 18 7 21 14 7 14 -6 0 -13 -4 -16 -10z"/>
<path d="M3148 1503 c6 -2 9 -10 6 -15 -4 -7 -2 -8 5 -4 13 9 5 26 -12 25 -9
0 -8 -2 1 -6z"/>
<path d="M450 1496 c0 -2 8 -10 18 -17 15 -13 16 -12 3 4 -13 16 -21 21 -21
13z"/>
<path d="M1212 1490 c4 -14 55 -23 63 -10 2 4 -8 6 -23 5 -15 -1 -31 3 -35 9
-6 7 -7 6 -5 -4z"/>
<path d="M678 1463 c7 -3 16 -2 19 1 4 3 -2 6 -13 5 -11 0 -14 -3 -6 -6z"/>
<path d="M3074 1464 c3 -3 1 -16 -4 -28 -6 -16 -5 -23 4 -23 12 0 15 43 3 52
-4 3 -5 2 -3 -1z"/>
<path d="M3470 1460 c0 -5 5 -10 10 -10 6 0 10 5 10 10 0 6 -4 10 -10 10 -5 0
-10 -4 -10 -10z"/>
<path d="M3598 1463 c7 -3 16 -2 19 1 4 3 -2 6 -13 5 -11 0 -14 -3 -6 -6z"/>
<path d="M3532 1451 c-11 -7 -11 -9 0 -14 9 -3 15 1 15 9 0 8 -1 14 -1 14 -1
0 -7 -4 -14 -9z"/>
<path d="M1251 1434 c0 -11 3 -14 6 -6 3 7 2 16 -1 19 -3 4 -6 -2 -5 -13z"/>
<path d="M3095 1441 c-3 -5 -2 -12 3 -15 5 -3 9 1 9 9 0 17 -3 19 -12 6z"/>
<path d="M3477 1427 c-3 -8 1 -14 8 -14 7 0 11 6 8 14 -3 7 -6 13 -8 13 -2 0
-5 -6 -8 -13z"/>
<path d="M3119 1423 c0 -5 -3 -19 -5 -32 -2 -14 -2 -22 1 -19 8 8 17 58 10 58
-3 0 -5 -3 -6 -7z"/>
<path d="M3516 1422 c-3 -5 1 -9 9 -9 8 0 12 4 9 9 -3 4 -7 8 -9 8 -2 0 -6 -4
-9 -8z"/>
<path d="M5080 1420 c-9 -6 -10 -10 -3 -10 6 0 15 5 18 10 8 12 4 12 -15 0z"/>
<path d="M1215 1410 c-4 -6 -11 -7 -17 -4 -7 4 -8 2 -4 -5 6 -9 11 -9 22 0 14
11 18 19 10 19 -3 0 -8 -5 -11 -10z"/>
<path d="M1160 1400 c-9 -6 -10 -10 -3 -10 6 0 15 5 18 10 8 12 4 12 -15 0z"/>
<path d="M5033 1395 c0 -8 4 -12 9 -9 5 3 6 10 3 15 -9 13 -12 11 -12 -6z"/>
<path d="M1188 1378 c5 -5 16 -8 23 -6 8 3 3 7 -10 11 -17 4 -21 3 -13 -5z"/>
<path d="M3043 1383 c-18 -7 -16 -16 5 -30 15 -9 19 -8 19 3 0 7 -5 10 -10 7
-6 -4 -8 0 -4 10 3 10 5 17 4 16 -1 0 -8 -3 -14 -6z"/>
<path d="M3507 1379 c7 -7 15 -10 18 -7 3 3 -2 9 -12 12 -14 6 -15 5 -6 -5z"/>
<path d="M5074 1360 c0 -13 4 -16 10 -10 7 7 7 13 0 20 -6 6 -10 3 -10 -10z"/>
<path d="M2030 1360 c0 -5 5 -10 11 -10 5 0 7 5 4 10 -3 6 -8 10 -11 10 -2 0
-4 -4 -4 -10z"/>
<path d="M3493 1355 c0 -7 6 -11 14 -8 7 3 13 6 13 8 0 2 -6 5 -13 8 -8 3 -14
-1 -14 -8z"/>
<path d="M1194 1352 c3 -5 0 -13 -6 -15 -9 -4 -10 -6 -1 -6 17 -1 25 16 12 25
-7 4 -9 3 -5 -4z"/>
<path d="M2021 1314 c0 -11 3 -14 6 -6 3 7 2 16 -1 19 -3 4 -6 -2 -5 -13z"/>
<path d="M3024 1310 c0 -13 4 -16 10 -10 7 7 7 13 0 20 -6 6 -10 3 -10 -10z"/>
<path d="M3090 1321 c0 -6 4 -13 10 -16 6 -3 7 1 4 9 -7 18 -14 21 -14 7z"/>
<path d="M5085 1320 c3 -5 8 -10 11 -10 2 0 4 5 4 10 0 6 -5 10 -11 10 -5 0
-7 -4 -4 -10z"/>
<path d="M1158 1303 c7 -3 16 -2 19 1 4 3 -2 6 -13 5 -11 0 -14 -3 -6 -6z"/>
<path d="M5016 1302 c-2 -4 -1 -14 4 -22 7 -11 9 -9 7 8 -1 24 -3 26 -11 14z"/>
<path d="M5043 1295 c-3 -9 -3 -18 -1 -21 3 -3 8 4 11 16 6 23 -1 27 -10 5z"/>
<path d="M1994 1276 c1 -14 4 -28 7 -31 3 -3 5 6 5 19 -1 14 -4 28 -7 31 -3 3
-5 -6 -5 -19z"/>
<path d="M3039 1273 c-12 -16 -12 -17 2 -6 9 7 19 10 22 6 4 -3 7 -1 7 5 0 17
-16 15 -31 -5z"/>
<path d="M1154 1254 c4 -9 2 -22 -3 -28 -7 -8 -4 -12 8 -12 15 0 17 5 11 22
-5 12 -6 25 -3 28 4 3 1 6 -6 6 -8 0 -11 -6 -7 -16z"/>
<path d="M2027 1259 c7 -7 15 -10 18 -7 3 3 -2 9 -12 12 -14 6 -15 5 -6 -5z"/>
<path d="M2980 1264 c0 -1 6 -7 14 -13 10 -9 15 -8 19 2 3 8 -3 13 -14 13 -11
0 -19 -1 -19 -2z"/>
<path d="M5038 1253 c7 -3 16 -2 19 1 4 3 -2 6 -13 5 -11 0 -14 -3 -6 -6z"/>
<path d="M1082 1218 c-15 -15 -15 -28 0 -28 6 0 8 3 5 7 -4 3 -2 12 4 20 14
16 7 17 -9 1z"/>
<path d="M1947 1219 c7 -9 10 -19 6 -22 -3 -4 -2 -7 4 -7 6 0 17 8 24 17 10
12 11 15 1 9 -7 -4 -20 -2 -30 6 -15 11 -15 11 -5 -3z"/>
<path d="M2993 1210 c5 -29 13 -33 13 -5 0 14 -4 25 -8 25 -4 0 -7 -9 -5 -20z"/>
<path d="M1896 1202 c-3 -5 1 -9 9 -9 8 0 12 4 9 9 -3 4 -7 8 -9 8 -2 0 -6 -4
-9 -8z"/>
<path d="M5030 1176 c13 -18 13 -19 -1 -14 -9 4 -16 1 -16 -7 0 -8 7 -11 15
-7 11 4 13 1 7 -9 -5 -8 -4 -11 0 -6 15 13 14 36 -3 49 -16 12 -16 11 -2 -6z"/>
<path d="M2976 1158 c3 -5 10 -6 15 -3 13 9 11 12 -6 12 -8 0 -12 -4 -9 -9z"/>
<path d="M1072 1147 c-8 -10 -6 -13 7 -13 11 0 17 6 14 13 -3 7 -6 13 -8 13
-1 0 -7 -6 -13 -13z"/>
<path d="M1114 1145 c3 -20 26 -44 26 -27 0 7 -5 12 -11 12 -5 0 -8 4 -4 9 3
5 1 12 -4 15 -5 4 -8 -1 -7 -9z"/>
<path d="M1947 1146 c-4 -10 -1 -13 8 -9 8 3 12 9 9 14 -7 12 -11 11 -17 -5z"/>
<path d="M4970 1131 c-8 -6 -17 -8 -21 -5 -4 2 -10 0 -13 -5 -4 -5 2 -8 11 -6
10 1 23 -1 28 -6 7 -5 11 0 11 12 0 10 0 19 -1 19 0 0 -7 -4 -15 -9z"/>
<path d="M1856 1113 c-6 -14 -5 -15 5 -6 7 7 10 15 7 18 -3 3 -9 -2 -12 -12z"/>
<path d="M1068 1095 c3 -5 7 -20 8 -33 0 -12 4 -25 8 -29 3 -4 5 4 3 18 -3 13
-1 31 3 39 6 11 3 16 -10 16 -10 0 -16 -5 -12 -11z"/>
<path d="M1920 1100 c-9 -6 -10 -10 -3 -10 6 0 15 5 18 10 8 12 4 12 -15 0z"/>
<path d="M1812 1091 c-11 -6 -10 -10 0 -19 11 -8 14 -7 14 9 0 10 0 19 -1 19
0 0 -6 -4 -13 -9z"/>
<path d="M1878 1093 c7 -3 16 -2 19 1 4 3 -2 6 -13 5 -11 0 -14 -3 -6 -6z"/>
<path d="M2836 1071 c-3 -5 1 -11 9 -14 9 -4 12 -1 8 9 -6 16 -10 17 -17 5z"/>
<path d="M2913 1065 c0 -8 4 -12 9 -9 5 3 6 10 3 15 -9 13 -12 11 -12 -6z"/>
<path d="M3910 1060 c0 -5 5 -10 11 -10 5 0 7 5 4 10 -3 6 -8 10 -11 10 -2 0
-4 -4 -4 -10z"/>
<path d="M2878 1053 c7 -3 16 -2 19 1 4 3 -2 6 -13 5 -11 0 -14 -3 -6 -6z"/>
<path d="M1816 1033 c-6 -14 -5 -15 5 -6 7 7 10 15 7 18 -3 3 -9 -2 -12 -12z"/>
<path d="M2816 1042 c-3 -4 4 -9 15 -9 23 -2 25 3 4 10 -8 4 -16 3 -19 -1z"/>
<path d="M4946 1038 c6 -9 44 -6 44 3 0 4 -11 6 -24 5 -13 0 -22 -4 -20 -8z"/>
<path d="M1840 1036 c0 -2 7 -7 16 -10 8 -3 12 -2 9 4 -6 10 -25 14 -25 6z"/>
<path d="M1792 1020 c3 -8 2 -22 -3 -31 -6 -12 -3 -15 11 -14 11 1 23 5 27 9
5 4 2 6 -6 4 -7 -1 -15 5 -16 15 -2 11 -7 22 -11 25 -4 4 -4 0 -2 -8z"/>
<path d="M2906 1018 c3 -5 10 -6 15 -3 13 9 11 12 -6 12 -8 0 -12 -4 -9 -9z"/>
<path d="M1733 1005 c0 -7 6 -11 14 -8 7 3 13 6 13 8 0 2 -6 5 -13 8 -8 3 -14
-1 -14 -8z"/>
<path d="M2816 1007 c3 -10 9 -15 12 -12 3 3 0 11 -7 18 -10 9 -11 8 -5 -6z"/>
<path d="M4915 1010 c-4 -6 -12 -7 -18 -4 -7 4 -8 3 -4 -1 13 -15 34 -14 34 1
0 17 -4 18 -12 4z"/>
<path d="M1030 1000 c0 -5 5 -10 10 -10 6 0 10 5 10 10 0 6 -4 10 -10 10 -5 0
-10 -4 -10 -10z"/>
<path d="M2851 994 c0 -11 3 -14 6 -6 3 7 2 16 -1 19 -3 4 -6 -2 -5 -13z"/>
<path d="M2748 993 c7 -3 16 -2 19 1 4 3 -2 6 -13 5 -11 0 -14 -3 -6 -6z"/>
<path d="M989 972 c11 -20 38 -24 38 -6 0 11 -3 11 -16 1 -12 -10 -14 -9 -9 4
4 9 1 16 -8 16 -9 0 -10 -5 -5 -15z"/>
<path d="M1746 982 c-3 -5 1 -9 9 -9 8 0 12 4 9 9 -3 4 -7 8 -9 8 -2 0 -6 -4
-9 -8z"/>
<path d="M4959 983 c-1 -5 -1 -12 0 -17 1 -4 -4 -16 -11 -25 -12 -14 -11 -14
4 -3 9 7 16 22 15 33 -1 19 -6 26 -8 12z"/>
<path d="M2794 965 c1 -8 8 -21 16 -28 12 -10 12 -9 2 4 -6 9 -9 18 -6 21 3 3
1 9 -4 12 -6 3 -9 -1 -8 -9z"/>
<path d="M2821 964 c0 -11 3 -14 6 -6 3 7 2 16 -1 19 -3 4 -6 -2 -5 -13z"/>
<path d="M1055 959 c-4 -6 -5 -12 -2 -15 2 -3 7 2 10 11 7 17 1 20 -8 4z"/>
<path d="M1710 960 c0 -5 5 -10 10 -10 6 0 10 5 10 10 0 6 -4 10 -10 10 -5 0
-10 -4 -10 -10z"/>
<path d="M2771 954 c0 -11 3 -14 6 -6 3 7 2 16 -1 19 -3 4 -6 -2 -5 -13z"/>
<path d="M3954 948 l-19 -23 23 19 c21 18 27 26 19 26 -2 0 -12 -10 -23 -22z"/>
<path d="M4861 954 c0 -11 3 -14 6 -6 3 7 2 16 -1 19 -3 4 -6 -2 -5 -13z"/>
<path d="M1750 936 c7 -7 13 -7 20 0 6 6 3 10 -10 10 -13 0 -16 -4 -10 -10z"/>
<path d="M3870 940 c0 -5 5 -10 10 -10 6 0 10 5 10 10 0 6 -4 10 -10 10 -5 0
-10 -4 -10 -10z"/>
<path d="M953 925 c0 -8 4 -15 9 -15 4 0 8 4 8 9 0 6 -4 12 -8 15 -5 3 -9 -1
-9 -9z"/>
<path d="M1020 929 c0 -5 -4 -7 -10 -4 -14 9 -12 -1 3 -13 10 -8 13 -6 14 9 1
10 0 19 -3 19 -2 0 -4 -5 -4 -11z"/>
<path d="M2654 919 c0 -12 4 -15 12 -8 6 5 19 7 28 3 10 -4 16 -1 16 7 0 7 -3
10 -6 6 -3 -3 -16 -2 -28 3 -17 6 -22 4 -22 -11z"/>
<path d="M2730 930 c-9 -6 -10 -10 -3 -10 6 0 15 5 18 10 8 12 4 12 -15 0z"/>
<path d="M1731 914 c0 -11 3 -14 6 -6 3 7 2 16 -1 19 -3 4 -6 -2 -5 -13z"/>
<path d="M4835 919 c-3 -4 2 -6 10 -5 21 3 28 13 10 13 -9 0 -18 -4 -20 -8z"/>
<path d="M2753 905 c0 -8 4 -12 9 -9 5 3 6 10 3 15 -9 13 -12 11 -12 -6z"/>
<path d="M3867 907 c-3 -7 3 -13 14 -13 13 0 15 3 7 13 -6 7 -12 13 -13 13 -2
0 -5 -6 -8 -13z"/>
<path d="M986 899 c6 -8 10 -22 9 -32 -2 -9 1 -15 6 -11 5 3 7 9 4 14 -3 4 -1
10 5 12 6 2 0 9 -12 17 -20 12 -21 12 -12 0z"/>
<path d="M4917 893 c3 -7 6 -13 8 -13 2 0 5 6 8 13 3 8 -1 14 -8 14 -7 0 -11
-6 -8 -14z"/>
<path d="M931 884 c0 -11 3 -14 6 -6 3 7 2 16 -1 19 -3 4 -6 -2 -5 -13z"/>
<path d="M1663 884 c9 -11 14 -24 10 -27 -3 -4 -1 -7 6 -7 7 0 11 6 8 13 -2 6
3 18 12 25 14 11 13 12 -5 3 -15 -7 -25 -7 -35 2 -7 7 -6 3 4 -9z"/>
<path d="M2570 896 c0 -2 8 -10 18 -17 15 -13 16 -12 3 4 -13 16 -21 21 -21
13z"/>
<path d="M1595 881 c-3 -5 -2 -12 3 -15 5 -3 9 1 9 9 0 17 -3 19 -12 6z"/>
<path d="M4812 881 c-11 -7 -11 -9 0 -14 9 -3 15 1 15 9 0 8 -1 14 -1 14 -1 0
-7 -4 -14 -9z"/>
<path d="M910 861 c0 -6 4 -13 10 -16 6 -3 7 1 4 9 -7 18 -14 21 -14 7z"/>
<path d="M2482 857 c-8 -10 -5 -16 11 -27 20 -12 21 -12 9 3 -8 9 -11 21 -7
27 9 14 0 13 -13 -3z"/>
<path d="M3860 864 c0 -1 6 -7 14 -13 10 -9 15 -8 19 2 3 8 -3 13 -14 13 -11
0 -19 -1 -19 -2z"/>
<path d="M4885 859 c-4 -6 -13 -8 -19 -6 -7 3 -13 -1 -13 -8 0 -10 5 -11 18
-4 18 9 35 29 25 29 -3 0 -8 -5 -11 -11z"/>
<path d="M3823 843 c5 -6 6 -16 3 -22 -7 -10 20 -9 29 2 3 4 2 5 -1 2 -4 -2
-14 4 -23 13 -9 10 -12 12 -8 5z"/>
<path d="M1551 834 c7 -8 6 -14 -3 -17 -7 -3 -3 -4 9 -4 15 1 19 5 13 13 -6 6
-8 13 -5 16 3 2 -2 5 -10 5 -10 0 -12 -4 -4 -13z"/>
<path d="M1605 841 c-2 -4 12 -7 30 -7 19 0 32 3 29 5 -7 8 -54 9 -59 2z"/>
<path d="M2559 833 c-12 -16 -12 -17 2 -6 9 7 20 9 24 5 5 -4 5 -1 1 6 -9 16
-11 15 -27 -5z"/>
<path d="M2638 843 c7 -3 16 -2 19 1 4 3 -2 6 -13 5 -11 0 -14 -3 -6 -6z"/>
<path d="M947 813 c4 -10 2 -14 -4 -10 -5 3 -10 0 -10 -8 0 -13 4 -12 19 2 22
19 22 19 4 26 -11 4 -13 1 -9 -10z"/>
<path d="M3756 805 c23 -17 34 -19 34 -4 0 5 -4 8 -9 4 -5 -3 -12 -1 -16 5 -3
5 -11 10 -18 10 -6 0 -2 -7 9 -15z"/>
<path d="M1495 800 c3 -5 8 -10 11 -10 2 0 4 5 4 10 0 6 -5 10 -11 10 -5 0 -7
-4 -4 -10z"/>
<path d="M4771 794 c0 -11 3 -14 6 -6 3 7 2 16 -1 19 -3 4 -6 -2 -5 -13z"/>
<path d="M4800 800 c-9 -6 -10 -10 -3 -10 6 0 15 5 18 10 8 12 4 12 -15 0z"/>
<path d="M4830 806 c0 -2 7 -7 16 -10 8 -3 12 -2 9 4 -6 10 -25 14 -25 6z"/>
<path d="M1588 783 c7 -3 16 -2 19 1 4 3 -2 6 -13 5 -11 0 -14 -3 -6 -6z"/>
<path d="M3700 784 c0 -1 6 -7 14 -13 10 -9 15 -8 19 2 3 8 -3 13 -14 13 -11
0 -19 -1 -19 -2z"/>
<path d="M4826 777 c3 -10 9 -15 12 -12 3 3 0 11 -7 18 -10 9 -11 8 -5 -6z"/>
<path d="M895 770 c-4 -6 -15 -8 -26 -5 -12 4 -19 2 -19 -6 0 -7 3 -9 7 -6 3
4 15 -1 26 -10 11 -10 17 -12 13 -5 -4 7 -2 19 4 27 7 8 10 15 7 15 -3 0 -9
-5 -12 -10z"/>
<path d="M4741 764 c0 -11 3 -14 6 -6 3 7 2 16 -1 19 -3 4 -6 -2 -5 -13z"/>
<path d="M815 759 c-4 -6 -4 -13 -1 -16 3 -4 6 -1 6 6 0 7 5 9 12 5 7 -4 8 -3
4 4 -9 15 -13 15 -21 1z"/>
<path d="M915 759 c-4 -6 -5 -12 -2 -15 2 -3 7 2 10 11 7 17 1 20 -8 4z"/>
<path d="M3596 761 c-3 -5 2 -15 12 -22 16 -13 16 -13 2 5 -14 18 -13 19 3 13
11 -4 16 -3 12 3 -8 12 -22 13 -29 1z"/>
<path d="M4770 761 c0 -6 4 -13 10 -16 6 -3 7 1 4 9 -7 18 -14 21 -14 7z"/>
<path d="M3467 729 c4 -13 8 -18 11 -10 2 7 -1 18 -6 23 -8 8 -9 4 -5 -13z"/>
<path d="M3710 740 c0 -5 5 -10 10 -10 6 0 10 5 10 10 0 6 -4 10 -10 10 -5 0
-10 -4 -10 -10z"/>
<path d="M4708 743 c7 -3 16 -2 19 1 4 3 -2 6 -13 5 -11 0 -14 -3 -6 -6z"/>
<path d="M3495 729 c-4 -6 -5 -12 -2 -15 2 -3 7 2 10 11 7 17 1 20 -8 4z"/>
<path d="M3554 729 c-3 -6 -2 -15 3 -20 5 -5 9 -1 9 11 0 23 -2 24 -12 9z"/>
<path d="M855 720 c-3 -5 -1 -10 4 -10 6 0 11 5 11 10 0 6 -2 10 -4 10 -3 0
-8 -4 -11 -10z"/>
<path d="M3531 714 c0 -11 3 -14 6 -6 3 7 2 16 -1 19 -3 4 -6 -2 -5 -13z"/>
<path d="M3633 715 c0 -8 4 -12 9 -9 4 3 8 9 8 15 0 5 -4 9 -8 9 -5 0 -9 -7
-9 -15z"/>
<path d="M4713 713 c0 -9 4 -10 14 -2 7 6 13 12 13 14 0 1 -6 2 -13 2 -8 0
-14 -6 -14 -14z"/>
<path d="M4755 720 c3 -5 8 -10 11 -10 2 0 4 5 4 10 0 6 -5 10 -11 10 -5 0 -7
-4 -4 -10z"/>
<path d="M4639 718 c-5 -19 -8 -50 -4 -46 7 7 15 48 9 48 -2 0 -4 -1 -5 -2z"/>
<path d="M793 690 c-1 -11 2 -20 5 -20 4 0 8 9 9 20 1 11 -2 20 -5 20 -4 0 -8
-9 -9 -20z"/>
<path d="M748 693 c7 -3 16 -2 19 1 4 3 -2 6 -13 5 -11 0 -14 -3 -6 -6z"/>
<path d="M4676 681 c-3 -4 6 -7 19 -7 14 0 22 2 19 5 -8 8 -34 10 -38 2z"/>
<path d="M718 663 c7 -3 16 -2 19 1 4 3 -2 6 -13 5 -11 0 -14 -3 -6 -6z"/>
<path d="M750 666 c0 -2 7 -7 16 -10 8 -3 12 -2 9 4 -6 10 -25 14 -25 6z"/>
<path d="M648 652 c-17 -7 -17 -8 0 -18 15 -10 18 -8 18 7 0 11 0 19 -1 18 0
0 -8 -4 -17 -7z"/>
<path d="M4651 644 c0 -11 3 -14 6 -6 3 7 2 16 -1 19 -3 4 -6 -2 -5 -13z"/>
<path d="M4675 649 c-4 -6 -5 -12 -2 -15 2 -3 7 2 10 11 7 17 1 20 -8 4z"/>
<path d="M696 634 c-3 -9 1 -11 11 -7 10 4 14 2 10 -4 -3 -5 0 -10 8 -10 10 0
12 4 5 12 -5 7 -8 14 -5 17 3 2 -2 5 -10 5 -8 0 -16 -6 -19 -13z"/>
<path d="M753 635 c0 -8 4 -12 9 -9 5 3 6 10 3 15 -9 13 -12 11 -12 -6z"/>
<path d="M4514 605 c0 -19 3 -32 5 -29 8 7 9 54 2 59 -4 2 -7 -12 -7 -30z"/>
<path d="M627 613 c4 -10 2 -14 -4 -10 -5 3 -10 0 -10 -8 0 -13 4 -12 19 2 22
19 22 19 4 26 -11 4 -13 1 -9 -10z"/>
<path d="M510 616 c0 -2 8 -10 18 -17 15 -13 16 -12 3 4 -13 16 -21 21 -21 13z"/>
<path d="M4558 613 c7 -3 16 -2 19 1 4 3 -2 6 -13 5 -11 0 -14 -3 -6 -6z"/>
<path d="M661 596 c-9 -11 -9 -16 1 -22 7 -4 10 -4 6 1 -4 4 -3 14 3 22 6 7 9
13 6 13 -2 0 -10 -6 -16 -14z"/>
<path d="M4477 592 c-15 -17 -15 -18 6 -19 12 0 16 1 9 4 -10 4 -10 8 -1 19
17 20 5 17 -14 -4z"/>
<path d="M553 587 c0 -7 9 -14 20 -14 11 -1 18 -1 16 0 -2 2 -11 8 -20 15 -12
9 -16 9 -16 -1z"/>
</g>
</svg>
